millimetreA 01.ufo
<glyph name="exclam" format="1">
  <advance width="200"/>
  <unicode hex="0021"/>
  <outline>
    <contour>
      <point x="50" y="0" type="line"/>
      <point x="150" y="0" type="line"/>
      <point x="150" y="100" type="line"/>
      <point x="50" y="100" type="line"/>
    </contour>
    <contour>
      <point x="70" y="200" type="line"/>
      <point x="130" y="200" type="line"/>
      <point x="150" y="500" type="line"/>
      <point x="150" y="700" type="line"/>
      <point x="50" y="700" type="line"/>
      <point x="50" y="500" type="line"/>
    </contour>
  </outline>
</glyph>
<glyph name="numbersign" format="1">
  <advance width="400"/>
  <unicode hex="0023"/>
  <outline>
    <contour>
      <point x="250" y="295" type="line"/>
      <point x="135" y="295" type="line"/>
      <point x="150" y="405" type="line"/>
      <point x="265" y="405" type="line"/>
    </contour>
    <contour>
      <point x="200.0" y="0.0" type="line"/>
      <point x="300.0" y="0.0" type="line"/>
      <point x="330.0" y="200.0" type="line"/>
      <point x="400.0" y="200.0" type="line"/>
      <point x="400.0" y="300.0" type="line"/>
      <point x="345.0" y="300.0" type="line"/>
      <point x="355.0" y="400.0" type="line"/>
      <point x="400.0" y="400.0" type="line"/>
      <point x="400.0" y="500.0" type="line"/>
      <point x="365" y="500" type="line"/>
      <point x="385.0" y="603.0" type="line"/>
      <point x="400.0" y="700.0" type="line"/>
      <point x="300.0" y="700.0" type="line"/>
      <point x="270.0" y="500.0" type="line"/>
      <point x="165" y="500" type="line"/>
      <point x="185.0" y="600.0" type="line"/>
      <point x="200.0" y="700.0" type="line"/>
      <point x="100.0" y="700.0" type="line"/>
      <point x="70.0" y="500.0" type="line"/>
      <point x="0.0" y="500.0" type="line"/>
      <point x="0.0" y="400.0" type="line"/>
      <point x="55.0" y="400.0" type="line"/>
      <point x="45.0" y="300.0" type="line"/>
      <point x="0.0" y="300.0" type="line"/>
      <point x="0.0" y="200.0" type="line"/>
      <point x="35" y="200" type="line"/>
      <point x="15.0" y="100.0" type="line"/>
      <point x="0.0" y="0.0" type="line"/>
      <point x="100.0" y="0.0" type="line"/>
      <point x="130.0" y="200.0" type="line"/>
      <point x="235" y="200" type="line"/>
      <point x="215.0" y="99.0" type="line"/>
    </contour>
  </outline>
</glyph>
<glyph name="percent" format="1">
  <advance width="800"/>
  <unicode hex="0025"/>
  <outline>
    <contour>
      <point x="100" y="0" type="line"/>
      <point x="220" y="0" type="line"/>
      <point x="700" y="700" type="line"/>
      <point x="580" y="700" type="line"/>
    </contour>
    <component base="zero.sup"/>
    <component base="zero.sup" xOffset="400" yOffset="-400"/>
  </outline>
</glyph>
<glyph name="quotesingle" format="1">
  <advance width="200"/>
  <unicode hex="0027"/>
  <outline>
    <contour>
      <point x="50" y="650" type="line"/>
      <point x="75" y="500" type="line"/>
      <point x="125" y="500" type="line"/>
      <point x="150" y="650" type="line"/>
      <point x="150" y="700" type="line"/>
      <point x="50" y="700" type="line"/>
    </contour>
  </outline>
</glyph>
<glyph name="asterisk" format="1">
  <advance width="200"/>
  <unicode hex="002A"/>
  <outline>
    <contour>
      <point x="105" y="620" type="line"/>
      <point x="135" y="665" type="line"/>
      <point x="135" y="700" type="line"/>
      <point x="65" y="700" type="line"/>
      <point x="65" y="665" type="line" smooth="yes"/>
      <point x="95" y="620" type="line"/>
    </contour>
    <contour>
      <point x="80" y="590" type="line"/>
      <point x="30" y="570" type="line"/>
      <point x="10" y="545" type="line"/>
      <point x="65" y="500" type="line"/>
      <point x="85" y="525" type="line" smooth="yes"/>
      <point x="95" y="580" type="line"/>
    </contour>
    <contour>
      <point x="85" y="610" type="line"/>
      <point x="50" y="655" type="line"/>
      <point x="15" y="665" type="line"/>
      <point x="-5" y="600" type="line"/>
      <point x="30" y="590" type="line" smooth="yes"/>
      <point x="80" y="600" type="line"/>
    </contour>
    <contour>
      <point x="120" y="590" type="line"/>
      <point x="105" y="580" type="line"/>
      <point x="115" y="525" type="line" smooth="yes"/>
      <point x="135" y="500" type="line"/>
      <point x="190" y="545" type="line"/>
      <point x="170" y="570" type="line"/>
    </contour>
    <contour>
      <point x="115" y="610" type="line"/>
      <point x="120" y="600" type="line"/>
      <point x="170" y="590" type="line" smooth="yes"/>
      <point x="205" y="600" type="line"/>
      <point x="185" y="665" type="line"/>
      <point x="150" y="655" type="line"/>
    </contour>
    <contour>
      <point x="95" y="620" type="line"/>
      <point x="85" y="610" type="line"/>
      <point x="80" y="600" type="line"/>
      <point x="80" y="590" type="line"/>
      <point x="95" y="580" type="line"/>
      <point x="105" y="580" type="line"/>
      <point x="120" y="590" type="line"/>
      <point x="120" y="600" type="line"/>
      <point x="115" y="610" type="line"/>
      <point x="105" y="620" type="line"/>
    </contour>
  </outline>
</glyph>
<glyph name="plus" format="1">
  <advance width="600"/>
  <unicode hex="002B"/>
  <outline>
    <contour>
      <point x="550" y="200" type="line"/>
      <point x="550" y="300" type="line"/>
      <point x="395" y="300" type="line"/>
      <point x="345" y="295" type="line"/>
      <point x="350" y="345" type="line"/>
      <point x="350" y="500" type="line"/>
      <point x="250" y="500" type="line"/>
      <point x="250" y="345" type="line" smooth="yes"/>
      <point x="255" y="295" type="line"/>
      <point x="205" y="300" type="line"/>
      <point x="50" y="300" type="line"/>
      <point x="50" y="200" type="line"/>
      <point x="205" y="200" type="line" smooth="yes"/>
      <point x="255" y="205" type="line"/>
      <point x="250" y="155" type="line"/>
      <point x="250" y="0" type="line"/>
      <point x="350" y="0" type="line"/>
      <point x="350" y="155" type="line"/>
      <point x="345" y="205" type="line"/>
      <point x="395" y="200" type="line"/>
    </contour>
  </outline>
</glyph>
<glyph name="one" format="1">
  <advance width="200"/>
  <unicode hex="0031"/>
  <outline>
    <contour>
      <point x="50" y="0" type="line"/>
      <point x="150" y="0" type="line"/>
      <point x="150" y="700" type="line"/>
      <point x="50" y="700" type="line"/>
    </contour>
    <contour>
      <point x="100" y="700" type="line"/>
      <point x="30" y="700" type="line"/>
      <point x="20" y="600" type="line"/>
      <point x="110" y="600" type="line"/>
    </contour>
  </outline>
</glyph>
<glyph name="three" format="1">
  <advance width="600"/>
  <unicode hex="0033"/>
  <outline>
    <contour>
      <point x="270" y="0" type="curve" smooth="yes"/>
      <point x="300" y="0" type="line"/>
      <point x="300" y="100" type="line"/>
      <point x="180" y="100"/>
      <point x="150" y="120"/>
      <point x="150" y="240" type="curve" smooth="yes"/>
      <point x="150" y="250" type="line"/>
      <point x="50" y="250" type="line"/>
      <point x="50" y="220" type="line"/>
      <point x="50" y="70"/>
      <point x="130" y="0"/>
    </contour>
    <contour>
      <point x="330" y="0" type="line" smooth="yes"/>
      <point x="475" y="0"/>
      <point x="550" y="65"/>
      <point x="550" y="220" type="curve"/>
      <point x="550" y="350" type="line"/>
      <point x="550.0" y="390.0"/>
      <point x="533.665070213" y="434.000435396"/>
      <point x="475" y="450" type="curve"/>
      <point x="533.665070213" y="465.999564604"/>
      <point x="550.0" y="510.0"/>
      <point x="550" y="550" type="curve"/>
      <point x="550" y="560" type="line"/>
      <point x="550" y="655"/>
      <point x="480" y="710"/>
      <point x="300" y="710" type="curve" smooth="yes"/>
      <point x="110" y="710"/>
      <point x="50" y="660"/>
      <point x="50" y="570" type="curve"/>
      <point x="50" y="550" type="line"/>
      <point x="150" y="550" type="line"/>
      <point x="150" y="570" type="line"/>
      <point x="150" y="610"/>
      <point x="170" y="610"/>
      <point x="300" y="610" type="curve" smooth="yes"/>
      <point x="430" y="610"/>
      <point x="450" y="600"/>
      <point x="450" y="560" type="curve" smooth="yes"/>
      <point x="450" y="550" type="line" smooth="yes"/>
      <point x="450" y="510"/>
      <point x="430" y="500"/>
      <point x="300" y="500" type="curve"/>
      <point x="250" y="500" type="line"/>
      <point x="250" y="410" type="line"/>
      <point x="300" y="410" type="line"/>
      <point x="430" y="410"/>
      <point x="450" y="400"/>
      <point x="450" y="360" type="curve"/>
      <point x="450" y="240" type="line" smooth="yes"/>
      <point x="450" y="120"/>
      <point x="430" y="100"/>
      <point x="300" y="100" type="curve"/>
      <point x="300" y="0" type="line"/>
    </contour>
  </outline>
</glyph>
<glyph name="eight" format="1">
  <advance width="600"/>
  <unicode hex="0038"/>
  <outline>
    <contour>
      <point x="270" y="0" type="curve" smooth="yes"/>
      <point x="300" y="0" type="line"/>
      <point x="300" y="100" type="line"/>
      <point x="170" y="100"/>
      <point x="150" y="120"/>
      <point x="150" y="240" type="curve" smooth="yes"/>
      <point x="150" y="250" type="line"/>
      <point x="50" y="250" type="line"/>
      <point x="50" y="220" type="line"/>
      <point x="50" y="70"/>
      <point x="130" y="0"/>
    </contour>
    <contour>
      <point x="400" y="600" type="line" smooth="yes"/>
      <point x="440" y="600"/>
      <point x="450" y="580"/>
      <point x="450" y="550" type="curve"/>
      <point x="450" y="520"/>
      <point x="440" y="500"/>
      <point x="400" y="500" type="curve"/>
      <point x="200" y="500" type="line" smooth="yes"/>
      <point x="160" y="500"/>
      <point x="150" y="520"/>
      <point x="150" y="550" type="curve"/>
      <point x="150" y="580"/>
      <point x="160" y="600"/>
      <point x="200" y="600" type="curve"/>
    </contour>
    <contour>
      <point x="300" y="400" type="curve"/>
      <point x="430" y="400"/>
      <point x="450" y="380"/>
      <point x="450" y="260" type="curve" smooth="yes"/>
      <point x="450" y="250" type="line"/>
      <point x="550" y="250" type="line"/>
      <point x="550" y="280" type="line"/>
      <point x="550" y="350"/>
      <point x="535" y="405"/>
      <point x="475" y="435" type="curve"/>
      <point x="530" y="460"/>
      <point x="550" y="505"/>
      <point x="550" y="550" type="curve"/>
      <point x="550" y="635"/>
      <point x="490" y="700"/>
      <point x="400" y="700" type="curve" smooth="yes"/>
      <point x="200" y="700" type="line" smooth="yes"/>
      <point x="110" y="700"/>
      <point x="50" y="635"/>
      <point x="50" y="550" type="curve"/>
      <point x="50.0" y="505.0"/>
      <point x="70" y="460"/>
      <point x="125" y="435" type="curve"/>
      <point x="65" y="405"/>
      <point x="50.0" y="350.0"/>
      <point x="50" y="280" type="curve"/>
      <point x="50" y="250" type="line"/>
      <point x="150" y="250" type="line"/>
      <point x="150" y="260" type="line" smooth="yes"/>
      <point x="150" y="380"/>
      <point x="170" y="400"/>
    </contour>
    <contour>
      <point x="330" y="0" type="line" smooth="yes"/>
      <point x="470" y="0"/>
      <point x="550" y="70"/>
      <point x="550" y="220" type="curve"/>
      <point x="550" y="250" type="line"/>
      <point x="450" y="250" type="line"/>
      <point x="450" y="240" type="line" smooth="yes"/>
      <point x="450" y="120"/>
      <point x="430" y="100"/>
      <point x="300" y="100" type="curve"/>
      <point x="300" y="0" type="line"/>
    </contour>
  </outline>
</glyph>
<glyph name="less" format="1">
  <advance width="400"/>
  <unicode hex="003C"/>
  <outline>
    <contour>
      <point x="10" y="240" type="line"/>
      <point x="245" y="0" type="line"/>
      <point x="375" y="0" type="line"/>
      <point x="375" y="15" type="line"/>
      <point x="170" y="220" type="line"/>
      <point x="125" y="250" type="line"/>
      <point x="10" y="260" type="line"/>
    </contour>
    <contour>
      <point x="10" y="260" type="line"/>
      <point x="10" y="240" type="line"/>
      <point x="125" y="250" type="line"/>
      <point x="170" y="280" type="line"/>
      <point x="375" y="485" type="line"/>
      <point x="375" y="500" type="line"/>
      <point x="245" y="500" type="line"/>
    </contour>
  </outline>
</glyph>
<glyph name="greater" format="1">
  <advance width="400"/>
  <unicode hex="003E"/>
  <outline>
    <contour>
      <point x="390" y="240" type="line"/>
      <point x="390" y="260" type="line"/>
      <point x="275" y="250" type="line"/>
      <point x="230" y="220" type="line"/>
      <point x="25" y="15" type="line"/>
      <point x="25" y="0" type="line"/>
      <point x="155" y="0" type="line"/>
    </contour>
    <contour>
      <point x="390" y="260" type="line"/>
      <point x="155" y="500" type="line"/>
      <point x="25" y="500" type="line"/>
      <point x="25" y="485" type="line"/>
      <point x="230" y="280" type="line"/>
      <point x="275" y="250" type="line"/>
      <point x="390" y="240" type="line"/>
    </contour>
  </outline>
</glyph>
<glyph name="B" format="1">
  <advance width="600"/>
  <unicode hex="0042"/>
  <outline>
    <contour>
      <point x="150" y="700" type="line"/>
      <point x="50" y="700" type="line"/>
      <point x="50" y="0" type="line"/>
      <point x="150" y="0" type="line"/>
    </contour>
    <contour>
      <point x="330" y="200" type="line" smooth="yes"/>
      <point x="470" y="200"/>
      <point x="550" y="270"/>
      <point x="550" y="420" type="curve"/>
      <point x="550" y="450" type="line"/>
      <point x="450" y="450" type="line"/>
      <point x="450" y="440" type="line" smooth="yes"/>
      <point x="450" y="320"/>
      <point x="410" y="300"/>
      <point x="300" y="300" type="curve"/>
      <point x="110" y="300" type="line"/>
      <point x="110" y="200" type="line"/>
    </contour>
    <contour>
      <point x="330" y="700" type="curve" smooth="yes"/>
      <point x="110" y="700" type="line"/>
      <point x="110" y="600" type="line"/>
      <point x="300" y="600" type="line"/>
      <point x="410" y="600"/>
      <point x="450" y="580"/>
      <point x="450" y="460" type="curve" smooth="yes"/>
      <point x="450" y="450" type="line"/>
      <point x="550" y="450" type="line"/>
      <point x="550" y="480" type="line"/>
      <point x="550" y="630"/>
      <point x="470" y="700"/>
    </contour>
    <contour>
      <point x="405" y="0" type="line"/>
      <point x="485" y="0"/>
      <point x="555" y="60"/>
      <point x="555" y="150" type="curve"/>
      <point x="455" y="150" type="line"/>
      <point x="455" y="110"/>
      <point x="435" y="100"/>
      <point x="405" y="100" type="curve"/>
      <point x="110" y="100" type="line"/>
      <point x="110" y="0" type="line"/>
    </contour>
    <contour>
      <point x="405" y="200" type="line"/>
      <point x="435" y="200"/>
      <point x="455" y="190"/>
      <point x="455" y="150" type="curve" smooth="yes"/>
      <point x="555" y="150" type="line"/>
      <point x="555" y="240"/>
      <point x="485" y="300"/>
      <point x="405" y="300" type="curve"/>
      <point x="100" y="300" type="line"/>
      <point x="130" y="200" type="line"/>
    </contour>
  </outline>
</glyph>
<glyph name="F" format="1">
  <advance width="600"/>
  <unicode hex="0046"/>
  <outline>
    <contour>
      <point x="50" y="0" type="line"/>
      <point x="150" y="0" type="line"/>
      <point x="150" y="700" type="line"/>
      <point x="50" y="700" type="line"/>
    </contour>
    <contour>
      <point x="100" y="600" type="line"/>
      <point x="550" y="600" type="line"/>
      <point x="550" y="700" type="line"/>
      <point x="100" y="700" type="line"/>
    </contour>
    <contour>
      <point x="100" y="200" type="line"/>
      <point x="500" y="200" type="line"/>
      <point x="500" y="300" type="line"/>
      <point x="100" y="300" type="line"/>
    </contour>
  </outline>
</glyph>
<glyph name="I" format="1">
  <advance width="200"/>
  <unicode hex="0049"/>
  <outline>
    <contour>
      <point x="50" y="0" type="line"/>
      <point x="150" y="0" type="line"/>
      <point x="150" y="700" type="line"/>
      <point x="50" y="700" type="line"/>
    </contour>
    <contour>
      <point x="100" y="650" type="move" name="top"/>
    </contour>
  </outline>
</glyph>
<glyph name="L" format="1">
  <advance width="400"/>
  <unicode hex="004C"/>
  <outline>
    <contour>
      <point x="50" y="700" type="line"/>
      <point x="50" y="0" type="line"/>
      <point x="150" y="0" type="line"/>
      <point x="150" y="700" type="line"/>
    </contour>
    <contour>
      <point x="100" y="100" type="line"/>
      <point x="100" y="0" type="line"/>
      <point x="375" y="0" type="line"/>
      <point x="375" y="100" type="line"/>
    </contour>
  </outline>
</glyph>
<glyph name="N" format="1">
  <advance width="600"/>
  <unicode hex="004E"/>
  <outline>
    <contour>
      <point x="50" y="0" type="line"/>
      <point x="150" y="0" type="line"/>
      <point x="150" y="700" type="line"/>
      <point x="50" y="700" type="line"/>
    </contour>
    <contour>
      <point x="450" y="0" type="line"/>
      <point x="550" y="0" type="line"/>
      <point x="550" y="700" type="line"/>
      <point x="450" y="700" type="line"/>
    </contour>
    <contour>
      <point x="450" y="0" type="line"/>
      <point x="530" y="70" type="line"/>
      <point x="150" y="700" type="line"/>
      <point x="70" y="630" type="line"/>
    </contour>
    <contour>
      <point x="300" y="650" type="move" name="top"/>
    </contour>
  </outline>
</glyph>
<glyph name="bracketleft" format="1">
  <advance width="200"/>
  <unicode hex="005B"/>
  <outline>
    <contour>
      <point x="50" y="700" type="line"/>
      <point x="50" y="-200" type="line"/>
      <point x="200" y="-200" type="line"/>
      <point x="200" y="-100" type="line"/>
      <point x="150" y="-100" type="line"/>
      <point x="150" y="600" type="line" smooth="yes"/>
      <point x="200" y="600" type="line"/>
      <point x="200" y="700" type="line"/>
    </contour>
  </outline>
</glyph>
<glyph name="grave" format="1">
  <advance width="200"/>
  <unicode hex="0060"/>
  <outline>
    <contour>
      <point x="160" y="550" type="line"/>
      <point x="120" y="700" type="line"/>
      <point x="20" y="700" type="line"/>
      <point x="20" y="650" type="line"/>
      <point x="90" y="550" type="line"/>
    </contour>
    <contour>
      <point x="122" y="500" type="move" name="_top"/>
    </contour>
  </outline>
</glyph>
<glyph name="b" format="1">
  <advance width="600"/>
  <unicode hex="0062"/>
  <outline>
    <contour>
      <point x="50.0" y="0.0" type="line"/>
      <point x="140.0" y="0.0" type="line"/>
      <point x="145" y="80" type="line"/>
      <point x="150.0" y="117.0" type="line"/>
      <point x="150.0" y="700.0" type="line"/>
      <point x="50.0" y="700.0" type="line"/>
    </contour>
    <contour>
      <point x="150" y="420" type="curve"/>
      <point x="150" y="260" type="line"/>
      <point x="150" y="360"/>
      <point x="170" y="410"/>
      <point x="300" y="410" type="curve" smooth="yes"/>
      <point x="410" y="410"/>
      <point x="450" y="380"/>
      <point x="450" y="260" type="curve"/>
      <point x="450" y="250" type="line"/>
      <point x="550" y="250" type="line"/>
      <point x="550" y="290" type="line"/>
      <point x="550" y="440"/>
      <point x="480" y="510"/>
      <point x="330" y="510" type="curve" smooth="yes"/>
      <point x="210" y="510"/>
      <point x="160" y="470"/>
    </contour>
    <contour>
      <point x="145" y="80" type="line"/>
      <point x="155.277777778" y="30.0"/>
      <point x="206.666666667" y="-10.0"/>
      <point x="330.0" y="-10.0" type="curve" smooth="yes"/>
      <point x="480.0" y="-10.0"/>
      <point x="550.0" y="60.0"/>
      <point x="550.0" y="210.0" type="curve"/>
      <point x="550.0" y="250.0" type="line"/>
      <point x="450.0" y="250.0" type="line"/>
      <point x="450.0" y="240.0" type="line"/>
      <point x="450.0" y="120.0"/>
      <point x="410.0" y="90.0"/>
      <point x="300.0" y="90.0" type="curve" smooth="yes"/>
      <point x="170.0" y="90.0"/>
      <point x="150.0" y="140.0"/>
      <point x="150.0" y="240.0" type="curve"/>
      <point x="150.0" y="117.0" type="line"/>
    </contour>
  </outline>
</glyph>
<glyph name="i" format="1">
  <advance width="200"/>
  <unicode hex="0069"/>
  <outline>
    <contour>
      <point x="50" y="0" type="line"/>
      <point x="150" y="0" type="line"/>
      <point x="150" y="500" type="line"/>
      <point x="50" y="500" type="line"/>
    </contour>
    <contour>
      <point x="45" y="590" type="line"/>
      <point x="155" y="590" type="line"/>
      <point x="155" y="700" type="line"/>
      <point x="45" y="700" type="line"/>
    </contour>
  </outline>
</glyph>
<glyph name="j" format="1">
  <advance width="200"/>
  <unicode hex="006A"/>
  <outline>
    <contour>
      <point x="45" y="590" type="line"/>
      <point x="155" y="590" type="line"/>
      <point x="155" y="700" type="line"/>
      <point x="45" y="700" type="line"/>
    </contour>
    <component base="dotlessj"/>
  </outline>
</glyph>
<glyph name="w" format="1">
  <advance width="600"/>
  <unicode hex="0077"/>
  <outline>
    <contour>
      <point x="150" y="0" type="curve"/>
      <point x="240" y="30" type="line"/>
      <point x="180" y="130"/>
      <point x="150" y="230"/>
      <point x="150" y="350" type="curve" smooth="yes"/>
      <point x="150" y="500" type="line"/>
      <point x="50" y="500" type="line"/>
      <point x="50" y="350" type="line" smooth="yes"/>
      <point x="50" y="240"/>
      <point x="90" y="100"/>
    </contour>
    <contour>
      <point x="450" y="0" type="line"/>
      <point x="510" y="100"/>
      <point x="550" y="240"/>
      <point x="550" y="350" type="curve" smooth="yes"/>
      <point x="550" y="500" type="line"/>
      <point x="450" y="500" type="line"/>
      <point x="450" y="350" type="line" smooth="yes"/>
      <point x="450" y="230"/>
      <point x="420" y="130"/>
      <point x="360" y="30" type="curve"/>
      <point x="350" y="0" type="line"/>
    </contour>
    <contour>
      <point x="350" y="0" type="curve"/>
      <point x="440" y="30" type="line"/>
      <point x="380" y="130"/>
      <point x="350" y="200"/>
      <point x="350" y="300" type="curve" smooth="yes"/>
      <point x="350" y="500" type="line"/>
      <point x="250" y="500" type="line"/>
      <point x="250" y="300" type="line" smooth="yes"/>
      <point x="250" y="200"/>
      <point x="220" y="130"/>
      <point x="160" y="30" type="curve"/>
      <point x="150" y="0" type="line"/>
      <point x="250" y="0" type="line"/>
      <point x="270" y="40"/>
      <point x="295" y="115"/>
      <point x="300" y="175" type="curve"/>
      <point x="305" y="115"/>
      <point x="330" y="40"/>
    </contour>
  </outline>
</glyph>
<glyph name="bar" format="1">
  <advance width="200"/>
  <unicode hex="007C"/>
  <outline>
    <contour>
      <point x="50" y="0" type="line"/>
      <point x="150" y="0" type="line"/>
      <point x="150" y="700" type="line"/>
      <point x="50" y="700" type="line"/>
    </contour>
  </outline>
</glyph>
<glyph name="brokenbar" format="1">
  <advance width="200"/>
  <unicode hex="00A6"/>
  <outline>
    <contour>
      <point x="50" y="400" type="line"/>
      <point x="150" y="400" type="line"/>
      <point x="150" y="700" type="line"/>
      <point x="50" y="700" type="line"/>
    </contour>
    <contour>
      <point x="50" y="0" type="line"/>
      <point x="150" y="0" type="line"/>
      <point x="150" y="300" type="line"/>
      <point x="50" y="300" type="line"/>
    </contour>
  </outline>
</glyph>
<glyph name="section" format="1">
  <advance width="600"/>
  <unicode hex="00A7"/>
  <outline>
    <contour>
      <point x="140" y="355" type="curve"/>
      <point x="140" y="395"/>
      <point x="170" y="405"/>
      <point x="300" y="405" type="curve" smooth="yes"/>
      <point x="400" y="405"/>
      <point x="460" y="385"/>
      <point x="460" y="345" type="curve"/>
      <point x="460" y="305"/>
      <point x="430" y="295"/>
      <point x="300" y="295" type="curve" smooth="yes"/>
      <point x="200" y="295"/>
      <point x="140" y="315"/>
    </contour>
    <contour>
      <point x="40" y="345" type="curve"/>
      <point x="40" y="255"/>
      <point x="100" y="210"/>
      <point x="300" y="200" type="curve" smooth="yes"/>
      <point x="405" y="195"/>
      <point x="460" y="180"/>
      <point x="460" y="140" type="curve" smooth="yes"/>
      <point x="460" y="100"/>
      <point x="430" y="90"/>
      <point x="300" y="90" type="curve" smooth="yes"/>
      <point x="170" y="90"/>
      <point x="150" y="100"/>
      <point x="150" y="140" type="curve" smooth="yes"/>
      <point x="150" y="160" type="line"/>
      <point x="50" y="160" type="line"/>
      <point x="50" y="130" type="line" smooth="yes"/>
      <point x="50" y="40"/>
      <point x="110" y="-10"/>
      <point x="300" y="-10" type="curve" smooth="yes"/>
      <point x="480" y="-10"/>
      <point x="560" y="50"/>
      <point x="560" y="135" type="curve"/>
      <point x="560" y="185"/>
      <point x="525" y="225"/>
      <point x="470" y="240" type="curve"/>
      <point x="455" y="225" type="line"/>
      <point x="520" y="245"/>
      <point x="560" y="285"/>
      <point x="560" y="355" type="curve"/>
      <point x="560" y="445"/>
      <point x="500" y="490"/>
      <point x="300" y="500" type="curve" smooth="yes"/>
      <point x="195" y="505"/>
      <point x="140" y="520"/>
      <point x="140" y="560" type="curve" smooth="yes"/>
      <point x="140" y="600"/>
      <point x="170" y="610"/>
      <point x="300" y="610" type="curve" smooth="yes"/>
      <point x="430" y="610"/>
      <point x="450" y="600"/>
      <point x="450" y="560" type="curve" smooth="yes"/>
      <point x="450" y="540" type="line"/>
      <point x="550" y="540" type="line"/>
      <point x="550" y="570" type="line" smooth="yes"/>
      <point x="550" y="660"/>
      <point x="490" y="710"/>
      <point x="300" y="710" type="curve" smooth="yes"/>
      <point x="120" y="710"/>
      <point x="40" y="650"/>
      <point x="40" y="565" type="curve"/>
      <point x="40" y="515"/>
      <point x="75" y="475"/>
      <point x="130" y="460" type="curve"/>
      <point x="145" y="475" type="line"/>
      <point x="80" y="455"/>
      <point x="40" y="415"/>
    </contour>
  </outline>
</glyph>
<glyph name="ordfeminine" format="1">
  <advance width="400"/>
  <unicode hex="00AA"/>
  <outline>
    <contour>
      <point x="350" y="200" type="line"/>
      <point x="350" y="300" type="line"/>
      <point x="50" y="300" type="line"/>
      <point x="50" y="200" type="line"/>
    </contour>
    <component base="a.superior"/>
  </outline>
</glyph>
<glyph name="guillemotleft" format="1">
  <advance width="400"/>
  <unicode hex="00AB"/>
  <outline>
    <contour>
      <point x="20" y="250" type="line"/>
      <point x="110" y="250" type="line"/>
      <point x="210" y="400" type="line"/>
      <point x="120" y="400" type="line"/>
    </contour>
    <contour>
      <point x="20" y="250" type="line"/>
      <point x="120" y="100" type="line"/>
      <point x="210" y="100" type="line"/>
      <point x="110" y="250" type="line"/>
    </contour>
    <contour>
      <point x="170" y="250" type="line"/>
      <point x="260" y="250" type="line"/>
      <point x="360" y="400" type="line"/>
      <point x="270" y="400" type="line"/>
    </contour>
    <contour>
      <point x="170" y="250" type="line"/>
      <point x="270" y="100" type="line"/>
      <point x="360" y="100" type="line"/>
      <point x="260" y="250" type="line"/>
    </contour>
  </outline>
</glyph>
<glyph name="degree" format="1">
  <advance width="400"/>
  <unicode hex="00B0"/>
  <outline>
    <contour>
      <point x="270" y="550" type="curve"/>
      <point x="270" y="500"/>
      <point x="250" y="480"/>
      <point x="200" y="480" type="curve"/>
      <point x="150" y="480"/>
      <point x="130" y="500"/>
      <point x="130" y="550" type="curve"/>
      <point x="130" y="600"/>
      <point x="150" y="620"/>
      <point x="200" y="620" type="curve"/>
      <point x="250" y="620"/>
      <point x="270" y="600"/>
    </contour>
    <contour>
      <point x="360" y="550" type="curve"/>
      <point x="360" y="660"/>
      <point x="300" y="710"/>
      <point x="200" y="710" type="curve"/>
      <point x="100" y="710"/>
      <point x="40" y="660"/>
      <point x="40" y="550" type="curve"/>
      <point x="40" y="440"/>
      <point x="100" y="390"/>
      <point x="200" y="390" type="curve"/>
      <point x="300" y="390"/>
      <point x="360" y="440"/>
    </contour>
  </outline>
</glyph>
<glyph name="plusminus" format="1">
  <advance width="600"/>
  <unicode hex="00B1"/>
  <outline>
    <contour>
      <point x="550" y="200" type="line"/>
      <point x="550" y="300" type="line"/>
      <point x="395" y="300" type="line"/>
      <point x="345" y="295" type="line"/>
      <point x="350" y="345" type="line"/>
      <point x="350" y="355" type="line"/>
      <point x="345" y="405" type="line"/>
      <point x="395" y="400" type="line"/>
      <point x="550" y="400" type="line"/>
      <point x="550" y="500" type="line"/>
      <point x="395" y="500" type="line"/>
      <point x="345" y="495" type="line"/>
      <point x="350" y="545" type="line"/>
      <point x="350" y="700" type="line"/>
      <point x="250" y="700" type="line"/>
      <point x="250" y="545" type="line" smooth="yes"/>
      <point x="255" y="495" type="line"/>
      <point x="205" y="500" type="line"/>
      <point x="50" y="500" type="line"/>
      <point x="50" y="400" type="line"/>
      <point x="205" y="400" type="line" smooth="yes"/>
      <point x="255" y="405" type="line"/>
      <point x="250" y="355" type="line"/>
      <point x="250" y="345" type="line"/>
      <point x="255" y="295" type="line"/>
      <point x="205" y="300" type="line"/>
      <point x="50" y="300" type="line"/>
      <point x="50" y="200" type="line"/>
    </contour>
  </outline>
</glyph>
<glyph name="acute" format="1">
  <advance width="200"/>
  <unicode hex="00B4"/>
  <outline>
    <contour>
      <point x="40" y="550" type="line"/>
      <point x="110" y="550" type="line"/>
      <point x="180" y="650" type="line"/>
      <point x="180" y="700" type="line"/>
      <point x="80" y="700" type="line"/>
    </contour>
    <contour>
      <point x="68" y="500" type="move" name="_top"/>
    </contour>
  </outline>
</glyph>
<glyph name="paragraph" format="1">
  <advance width="600"/>
  <unicode hex="00B6"/>
  <outline>
    <contour>
      <point x="250" y="-100" type="line"/>
      <point x="350" y="-100" type="line"/>
      <point x="350" y="700" type="line"/>
      <point x="250" y="700" type="line"/>
    </contour>
    <contour>
      <point x="300" y="600" type="line"/>
      <point x="590" y="600" type="line"/>
      <point x="590" y="700" type="line"/>
      <point x="300" y="700" type="line"/>
    </contour>
    <contour>
      <point x="450" y="-100" type="line"/>
      <point x="550" y="-100" type="line"/>
      <point x="550" y="700" type="line"/>
      <point x="450" y="700" type="line"/>
    </contour>
    <contour>
      <point x="40" y="550" type="curve"/>
      <point x="40" y="460"/>
      <point x="110" y="400"/>
      <point x="190" y="400" type="curve"/>
      <point x="305" y="400" type="line"/>
      <point x="275" y="600" type="line"/>
      <point x="445" y="600" type="line"/>
      <point x="445" y="700" type="line"/>
      <point x="190" y="700" type="line"/>
      <point x="110" y="700"/>
      <point x="40" y="640"/>
    </contour>
  </outline>
</glyph>
<glyph name="cedilla" format="1">
  <advance width="200"/>
  <unicode hex="00B8"/>
  <outline>
    <contour>
      <point x="70" y="0" type="line"/>
      <point x="60" y="-80" type="line"/>
      <point x="90" y="-80"/>
      <point x="110" y="-80"/>
      <point x="110" y="-100" type="curve" smooth="yes"/>
      <point x="110" y="-120"/>
      <point x="100" y="-130"/>
      <point x="70" y="-130" type="curve"/>
      <point x="30" y="-130" type="line"/>
      <point x="20" y="-200" type="line"/>
      <point x="70" y="-200" type="line"/>
      <point x="140" y="-200"/>
      <point x="180" y="-170"/>
      <point x="180" y="-100" type="curve" smooth="yes"/>
      <point x="180" y="-50"/>
      <point x="160" y="-30"/>
      <point x="120" y="-30" type="curve"/>
      <point x="120" y="0" type="line"/>
    </contour>
    <contour>
      <point x="95" y="0" type="move" name="_bottom"/>
    </contour>
  </outline>
</glyph>
<glyph name="Eth" format="1">
  <advance width="600"/>
  <unicode hex="00D0"/>
  <outline>
    <contour>
      <point x="250" y="200" type="line"/>
      <point x="250" y="300" type="line"/>
      <point x="0" y="300" type="line"/>
      <point x="0" y="200" type="line"/>
    </contour>
    <component base="D"/>
  </outline>
</glyph>
<glyph name="multiply" format="1">
  <advance width="600"/>
  <unicode hex="00D7"/>
  <outline>
    <contour>
      <point x="520" y="400" type="line"/>
      <point x="450" y="470" type="line"/>
      <point x="330" y="355" type="line"/>
      <point x="300" y="315" type="line"/>
      <point x="270" y="355" type="line"/>
      <point x="150" y="470" type="line"/>
      <point x="80" y="400" type="line"/>
      <point x="195" y="280" type="line" smooth="yes"/>
      <point x="235" y="250" type="line"/>
      <point x="195" y="220" type="line"/>
      <point x="80" y="105" type="line"/>
      <point x="150" y="35" type="line"/>
      <point x="270" y="145" type="line" smooth="yes"/>
      <point x="300" y="185" type="line"/>
      <point x="330" y="145" type="line"/>
      <point x="450" y="30" type="line"/>
      <point x="520" y="100" type="line"/>
      <point x="405" y="220" type="line"/>
      <point x="365" y="250" type="line"/>
      <point x="405" y="280" type="line"/>
    </contour>
  </outline>
</glyph>
<glyph name="Oslash" format="1">
  <advance width="600"/>
  <unicode hex="00D8"/>
  <outline>
    <contour>
      <point x="50" y="0" type="line"/>
      <point x="130" y="-50" type="line"/>
      <point x="550" y="700" type="line"/>
      <point x="470" y="750" type="line"/>
    </contour>
    <component base="O"/>
  </outline>
</glyph>
<glyph name="germandbls" format="1">
  <advance width="800"/>
  <unicode hex="00DF"/>
  <outline>
    <contour>
      <point x="300" y="600" type="line" smooth="yes"/>
      <point x="430" y="600"/>
      <point x="460" y="590"/>
      <point x="460" y="560" type="curve"/>
      <point x="460.0" y="528.75"/>
      <point x="435" y="515"/>
      <point x="380" y="500" type="curve" smooth="yes"/>
      <point x="295" y="475"/>
      <point x="240.0" y="450.0"/>
      <point x="240" y="350" type="curve" smooth="yes"/>
      <point x="240" y="260"/>
      <point x="300" y="220"/>
      <point x="500" y="200" type="curve" smooth="yes"/>
      <point x="600" y="190"/>
      <point x="660" y="180"/>
      <point x="660" y="140" type="curve" smooth="yes"/>
      <point x="660" y="100"/>
      <point x="630" y="90"/>
      <point x="500" y="90" type="curve" smooth="yes"/>
      <point x="370" y="90"/>
      <point x="350" y="100"/>
      <point x="350" y="140" type="curve"/>
      <point x="350" y="160" type="line"/>
      <point x="250" y="160" type="line"/>
      <point x="250" y="130" type="line"/>
      <point x="250" y="40"/>
      <point x="310" y="-10"/>
      <point x="500" y="-10" type="curve" smooth="yes"/>
      <point x="680" y="-10"/>
      <point x="760" y="50"/>
      <point x="760" y="150" type="curve"/>
      <point x="760" y="240"/>
      <point x="700" y="280"/>
      <point x="500" y="300" type="curve" smooth="yes"/>
      <point x="400" y="310"/>
      <point x="340" y="320"/>
      <point x="340" y="360" type="curve" smooth="yes"/>
      <point x="340" y="390"/>
      <point x="355" y="395"/>
      <point x="425" y="415" type="curve" smooth="yes"/>
      <point x="520" y="440"/>
      <point x="560.0" y="472.142857143"/>
      <point x="560" y="555" type="curve"/>
      <point x="560" y="655"/>
      <point x="480" y="700"/>
      <point x="300" y="700" type="curve" smooth="yes"/>
      <point x="200" y="700" type="line" smooth="yes"/>
      <point x="110" y="700"/>
      <point x="50" y="640"/>
      <point x="50" y="550" type="curve"/>
      <point x="50" y="0" type="line"/>
      <point x="150" y="0" type="line"/>
      <point x="150" y="550" type="line" smooth="yes"/>
      <point x="150" y="590"/>
      <point x="170" y="600"/>
      <point x="200" y="600" type="curve" smooth="yes"/>
    </contour>
  </outline>
</glyph>
<glyph name="ae" format="1">
  <advance width="1000"/>
  <unicode hex="00E6"/>
  <outline>
    <contour>
      <point x="550" y="310" type="curve" smooth="yes"/>
      <point x="550" y="300" type="line"/>
      <point x="850" y="300" type="line"/>
      <point x="850" y="310" type="line"/>
      <point x="850" y="390"/>
      <point x="830" y="410"/>
      <point x="700" y="410" type="curve" smooth="yes"/>
      <point x="570" y="410"/>
      <point x="550" y="390"/>
    </contour>
    <contour>
      <point x="450" y="330" type="line" smooth="yes"/>
      <point x="450" y="390"/>
      <point x="430" y="410"/>
      <point x="300" y="410" type="curve"/>
      <point x="170" y="410"/>
      <point x="150" y="400"/>
      <point x="150" y="350" type="curve" smooth="yes"/>
      <point x="150" y="330" type="line"/>
      <point x="50" y="330" type="line"/>
      <point x="50" y="350" type="line" smooth="yes"/>
      <point x="50" y="450"/>
      <point x="110" y="510"/>
      <point x="300" y="510" type="curve"/>
      <point x="400" y="510"/>
      <point x="470" y="490"/>
      <point x="500" y="440" type="curve"/>
      <point x="530" y="490"/>
      <point x="610" y="510"/>
      <point x="700" y="510" type="curve" smooth="yes"/>
      <point x="880" y="510"/>
      <point x="950" y="440"/>
      <point x="950" y="310" type="curve"/>
      <point x="950" y="200" type="line"/>
      <point x="550" y="200" type="line"/>
      <point x="550" y="190" type="line" smooth="yes"/>
      <point x="550" y="110"/>
      <point x="570" y="90"/>
      <point x="700" y="90" type="curve" smooth="yes"/>
      <point x="830" y="90"/>
      <point x="850" y="100"/>
      <point x="850" y="130" type="curve"/>
      <point x="850" y="150" type="line"/>
      <point x="950" y="150" type="line"/>
      <point x="950" y="130" type="line"/>
      <point x="950" y="40"/>
      <point x="890" y="-10"/>
      <point x="700" y="-10" type="curve" smooth="yes"/>
      <point x="580" y="-10"/>
      <point x="505" y="15"/>
      <point x="470" y="100" type="curve"/>
      <point x="490" y="90" type="line"/>
      <point x="456.122192514" y="12.5650114602"/>
      <point x="383.846153846" y="-10.0"/>
      <point x="260" y="-10" type="curve" smooth="yes"/>
      <point x="110" y="-10"/>
      <point x="40" y="30"/>
      <point x="40" y="145" type="curve"/>
      <point x="40" y="260"/>
      <point x="110" y="300"/>
      <point x="260" y="300" type="curve" smooth="yes"/>
      <point x="365" y="300"/>
      <point x="425" y="280"/>
      <point x="455" y="220" type="curve"/>
      <point x="450" y="145" type="line"/>
      <point x="450" y="185"/>
      <point x="420" y="200"/>
      <point x="260" y="200" type="curve"/>
      <point x="160" y="200"/>
      <point x="140" y="190"/>
      <point x="140" y="145" type="curve"/>
      <point x="140" y="100"/>
      <point x="160" y="90"/>
      <point x="260" y="90" type="curve"/>
      <point x="420" y="90"/>
      <point x="450" y="105"/>
      <point x="450" y="145" type="curve"/>
    </contour>
    <contour>
      <point x="300.0" y="500.0" type="move" name="top"/>
    </contour>
    <contour>
      <point x="700.0" y="500.0" type="move" name="top"/>
    </contour>
  </outline>
</glyph>
<glyph name="eth" format="1">
  <advance width="600"/>
  <unicode hex="00F0"/>
  <outline>
    <contour>
      <point x="300" y="90" type="curve"/>
      <point x="165" y="90"/>
      <point x="145" y="130"/>
      <point x="145" y="210" type="curve" smooth="yes"/>
      <point x="145" y="250" type="line"/>
      <point x="45" y="250" type="line"/>
      <point x="45" y="210" type="line"/>
      <point x="45" y="80"/>
      <point x="105" y="-10"/>
      <point x="300" y="-10" type="curve"/>
      <point x="495" y="-10"/>
      <point x="555" y="80"/>
      <point x="555" y="260" type="curve" smooth="yes"/>
      <point x="555" y="435"/>
      <point x="480" y="565"/>
      <point x="300" y="700" type="curve"/>
      <point x="175" y="700" type="line"/>
      <point x="175" y="685" type="line"/>
      <point x="385" y="525"/>
      <point x="455" y="460"/>
      <point x="455" y="260" type="curve" smooth="yes"/>
      <point x="455" y="130"/>
      <point x="435" y="90"/>
    </contour>
    <contour>
      <point x="455" y="375" type="line"/>
      <point x="439.447956078" y="447.576204968"/>
      <point x="391.666666667" y="510.0"/>
      <point x="265" y="510" type="curve" smooth="yes"/>
      <point x="115" y="510"/>
      <point x="45" y="440"/>
      <point x="45" y="290" type="curve"/>
      <point x="45" y="250" type="line"/>
      <point x="145" y="250" type="line"/>
      <point x="145" y="260" type="line"/>
      <point x="145" y="380"/>
      <point x="185" y="410"/>
      <point x="295" y="410" type="curve" smooth="yes"/>
      <point x="433.666666667" y="410.0"/>
      <point x="455.0" y="360.0"/>
      <point x="455" y="260" type="curve"/>
    </contour>
    <contour>
      <point x="175" y="530" type="line"/>
      <point x="330" y="585" type="line"/>
      <point x="375" y="605" type="line"/>
      <point x="440" y="620" type="line"/>
      <point x="475" y="630" type="line"/>
      <point x="475" y="700" type="line"/>
      <point x="330" y="650" type="line"/>
      <point x="280" y="630" type="line"/>
      <point x="215" y="615" type="line"/>
      <point x="175" y="600" type="line"/>
    </contour>
    <contour>
      <point x="900.0" y="500.0" type="move" name="top"/>
    </contour>
  </outline>
</glyph>
<glyph name="divide" format="1">
  <advance width="600"/>
  <unicode hex="00F7"/>
  <outline>
    <contour>
      <point x="550" y="200" type="line"/>
      <point x="550" y="300" type="line"/>
      <point x="395" y="300" type="line"/>
      <point x="345" y="295" type="line"/>
      <point x="255" y="295" type="line"/>
      <point x="205" y="300" type="line"/>
      <point x="50" y="300" type="line"/>
      <point x="50" y="200" type="line"/>
      <point x="205" y="200" type="line" smooth="yes"/>
      <point x="255" y="205" type="line"/>
      <point x="345" y="205" type="line"/>
      <point x="395" y="200" type="line"/>
    </contour>
    <contour>
      <point x="250" y="0" type="line"/>
      <point x="350" y="0" type="line"/>
      <point x="350" y="100" type="line"/>
      <point x="250" y="100" type="line"/>
    </contour>
    <contour>
      <point x="250" y="400" type="line"/>
      <point x="350" y="400" type="line"/>
      <point x="350" y="500" type="line"/>
      <point x="250" y="500" type="line"/>
    </contour>
  </outline>
</glyph>
<glyph name="ij" format="1">
  <advance width="400"/>
  <unicode hex="0133"/>
  <outline>
    <contour>
      <point x="245" y="590" type="line"/>
      <point x="355" y="590" type="line"/>
      <point x="355" y="700" type="line"/>
      <point x="245" y="700" type="line"/>
    </contour>
    <contour>
      <point x="200" y="-210" type="curve" smooth="yes"/>
      <point x="280" y="-210"/>
      <point x="350" y="-150"/>
      <point x="350" y="-60" type="curve"/>
      <point x="350" y="500" type="line"/>
      <point x="250" y="500" type="line"/>
      <point x="250" y="-60" type="line" smooth="yes"/>
      <point x="250" y="-100"/>
      <point x="230" y="-110"/>
      <point x="200" y="-110" type="curve" smooth="yes"/>
      <point x="170" y="-110"/>
      <point x="150" y="-110"/>
      <point x="150" y="-70" type="curve"/>
      <point x="150" y="-50" type="line"/>
      <point x="50" y="-50" type="line"/>
      <point x="50" y="-70" type="line"/>
      <point x="50" y="-160"/>
      <point x="110" y="-210"/>
    </contour>
    <component base="i"/>
  </outline>
</glyph>
<glyph name="Lslash" format="1">
  <advance width="400"/>
  <unicode hex="0141"/>
  <outline>
    <contour>
      <point x="10" y="285" type="line"/>
      <point x="305" y="380" type="line"/>
      <point x="305" y="460" type="line"/>
      <point x="10" y="365" type="line"/>
    </contour>
    <component base="L"/>
  </outline>
</glyph>
<glyph name="lslash" format="1">
  <advance width="200"/>
  <unicode hex="0142"/>
  <outline>
    <contour>
      <point x="0" y="320" type="line"/>
      <point x="200" y="385" type="line"/>
      <point x="200" y="465" type="line"/>
      <point x="0" y="400" type="line"/>
    </contour>
    <component base="l"/>
  </outline>
</glyph>
<glyph name="circumflex" format="1">
  <advance width="200"/>
  <unicode hex="02C6"/>
  <outline>
    <contour>
      <point x="-10" y="550" type="line"/>
      <point x="60" y="550" type="line"/>
      <point x="110" y="650" type="line"/>
      <point x="110" y="700" type="line"/>
      <point x="70" y="700" type="line"/>
      <point x="-10" y="590" type="line"/>
    </contour>
    <contour>
      <point x="210" y="550" type="line"/>
      <point x="210" y="590" type="line"/>
      <point x="130" y="700" type="line"/>
      <point x="90" y="700" type="line"/>
      <point x="90" y="650" type="line"/>
      <point x="140" y="550" type="line"/>
    </contour>
    <contour>
      <point x="100" y="500" type="move" name="_top"/>
    </contour>
  </outline>
</glyph>
<glyph name="caron" format="1">
  <advance width="200"/>
  <unicode hex="02C7"/>
  <outline>
    <contour>
      <point x="-10" y="700" type="line"/>
      <point x="-10" y="670" type="line"/>
      <point x="60" y="550" type="line"/>
      <point x="110" y="550" type="line"/>
      <point x="110" y="620" type="line"/>
      <point x="20" y="700" type="line"/>
    </contour>
    <contour>
      <point x="210" y="700" type="line"/>
      <point x="180" y="700" type="line"/>
      <point x="90" y="620" type="line"/>
      <point x="90" y="550" type="line"/>
      <point x="140" y="550" type="line"/>
      <point x="210" y="670" type="line"/>
    </contour>
    <contour>
      <point x="100.0" y="500.0" type="move" name="_top"/>
    </contour>
  </outline>
</glyph>
<glyph name="dotaccent" format="1">
  <advance width="200"/>
  <unicode hex="02D9"/>
  <outline>
    <contour>
      <point x="155" y="650" type="curve"/>
      <point x="155" y="610"/>
      <point x="140" y="595"/>
      <point x="100" y="595" type="curve"/>
      <point x="60" y="595"/>
      <point x="45" y="610"/>
      <point x="45" y="650" type="curve"/>
      <point x="45" y="690"/>
      <point x="60" y="705"/>
      <point x="100" y="705" type="curve"/>
      <point x="140" y="705"/>
      <point x="155" y="690"/>
    </contour>
    <contour>
      <point x="100" y="500" type="move" name="_top"/>
    </contour>
  </outline>
</glyph>
<glyph name="ring" format="1">
  <advance width="400"/>
  <unicode hex="02DA"/>
  <outline>
    <contour>
      <point x="275" y="660" type="curve" smooth="yes"/>
      <point x="275" y="635"/>
      <point x="260" y="615"/>
      <point x="200" y="615" type="curve"/>
      <point x="140" y="615"/>
      <point x="125" y="635"/>
      <point x="125" y="660" type="curve" smooth="yes"/>
      <point x="125" y="685"/>
      <point x="140" y="705"/>
      <point x="200" y="705" type="curve"/>
      <point x="260" y="705"/>
      <point x="275" y="685"/>
    </contour>
    <contour>
      <point x="350" y="660" type="curve" smooth="yes"/>
      <point x="350" y="730"/>
      <point x="305" y="770"/>
      <point x="200" y="770" type="curve"/>
      <point x="95" y="770"/>
      <point x="50" y="730"/>
      <point x="50" y="660" type="curve" smooth="yes"/>
      <point x="50" y="590"/>
      <point x="95" y="550"/>
      <point x="200" y="550" type="curve"/>
      <point x="305" y="550"/>
      <point x="350" y="590"/>
    </contour>
    <contour>
      <point x="200" y="500" type="move" name="_top"/>
    </contour>
  </outline>
</glyph>
<glyph name="quoteleft" format="1">
  <advance width="200"/>
  <unicode hex="2018"/>
  <outline>
    <contour>
      <point x="165" y="600" type="line"/>
      <point x="165" y="700" type="line"/>
      <point x="50" y="700" type="line"/>
      <point x="50" y="650" type="line"/>
      <point x="80" y="500" type="line"/>
      <point x="130" y="500" type="line"/>
      <point x="130" y="600" type="line"/>
    </contour>
  </outline>
</glyph>
<glyph name="quoteright" format="1">
  <advance width="200"/>
  <unicode hex="2019"/>
  <outline>
    <contour>
      <point x="35" y="600" type="line"/>
      <point x="70" y="600" type="line"/>
      <point x="70" y="500" type="line"/>
      <point x="120" y="500" type="line"/>
      <point x="150" y="650" type="line"/>
      <point x="150" y="700" type="line"/>
      <point x="35" y="700" type="line"/>
    </contour>
  </outline>
</glyph>
<glyph name="quotesinglbase" format="1">
  <advance width="200"/>
  <unicode hex="201A"/>
  <outline>
    <contour>
      <point x="35" y="-100" type="line"/>
      <point x="70" y="-100" type="line"/>
      <point x="70" y="-200" type="line"/>
      <point x="120" y="-200" type="line"/>
      <point x="150" y="-50" type="line"/>
      <point x="150" y="0" type="line"/>
      <point x="35" y="0" type="line"/>
    </contour>
  </outline>
</glyph>
<glyph name="quotedblleft" format="1">
  <advance width="400"/>
  <unicode hex="201C"/>
  <outline>
    <contour>
      <point x="165" y="600" type="line"/>
      <point x="130" y="600" type="line"/>
      <point x="130" y="700" type="line"/>
      <point x="80" y="700" type="line"/>
      <point x="50" y="550" type="line"/>
      <point x="50" y="500" type="line"/>
      <point x="165" y="500" type="line"/>
    </contour>
    <contour>
      <point x="365" y="600" type="line"/>
      <point x="330" y="600" type="line"/>
      <point x="330" y="700" type="line"/>
      <point x="280" y="700" type="line"/>
      <point x="250" y="550" type="line"/>
      <point x="250" y="500" type="line"/>
      <point x="365" y="500" type="line"/>
    </contour>
  </outline>
</glyph>
<glyph name="quotedblright" format="1">
  <advance width="400"/>
  <unicode hex="201D"/>
  <outline>
    <contour>
      <point x="235" y="600" type="line"/>
      <point x="270" y="600" type="line"/>
      <point x="270" y="500" type="line"/>
      <point x="320" y="500" type="line"/>
      <point x="350" y="650" type="line"/>
      <point x="350" y="700" type="line"/>
      <point x="235" y="700" type="line"/>
    </contour>
    <contour>
      <point x="35" y="600" type="line"/>
      <point x="70" y="600" type="line"/>
      <point x="70" y="500" type="line"/>
      <point x="120" y="500" type="line"/>
      <point x="150" y="650" type="line"/>
      <point x="150" y="700" type="line"/>
      <point x="35" y="700" type="line"/>
    </contour>
  </outline>
</glyph>
<glyph name="quotedblbase" format="1">
  <advance width="400"/>
  <unicode hex="201E"/>
  <outline>
    <contour>
      <point x="235" y="-100" type="line"/>
      <point x="270" y="-100" type="line"/>
      <point x="270" y="-200" type="line"/>
      <point x="320" y="-200" type="line"/>
      <point x="350" y="-50" type="line"/>
      <point x="350" y="0" type="line"/>
      <point x="235" y="0" type="line"/>
    </contour>
    <contour>
      <point x="35" y="-100" type="line"/>
      <point x="70" y="-100" type="line"/>
      <point x="70" y="-200" type="line"/>
      <point x="120" y="-200" type="line"/>
      <point x="150" y="-50" type="line"/>
      <point x="150" y="0" type="line"/>
      <point x="35" y="0" type="line"/>
    </contour>
  </outline>
</glyph>
<glyph name="daggerdbl" format="1">
  <advance width="600"/>
  <unicode hex="2021"/>
  <outline>
    <contour>
      <point x="250" y="250" type="line"/>
      <point x="350" y="250" type="line"/>
      <point x="350.0" y="325.0" type="line"/>
      <point x="340" y="450" type="line"/>
      <point x="350.0" y="575.0" type="line"/>
      <point x="350.0" y="700.0" type="line"/>
      <point x="250.0" y="700.0" type="line"/>
      <point x="250.0" y="575.0" type="line"/>
      <point x="260" y="450" type="line"/>
      <point x="250.0" y="325.0" type="line"/>
    </contour>
    <contour>
      <point x="25" y="400" type="line"/>
      <point x="175" y="400" type="line"/>
      <point x="300" y="405" type="line"/>
      <point x="425" y="400" type="line"/>
      <point x="575" y="400" type="line"/>
      <point x="575" y="500" type="line"/>
      <point x="425" y="500" type="line"/>
      <point x="300" y="490" type="line"/>
      <point x="175" y="500" type="line"/>
      <point x="25" y="500" type="line"/>
    </contour>
    <contour>
      <point x="250" y="250" type="line"/>
      <point x="250" y="175" type="line"/>
      <point x="260" y="50" type="line"/>
      <point x="250" y="-75" type="line"/>
      <point x="250" y="-200" type="line"/>
      <point x="350" y="-200" type="line"/>
      <point x="350" y="-75" type="line"/>
      <point x="340" y="50" type="line"/>
      <point x="350" y="175" type="line"/>
      <point x="350" y="250" type="line"/>
    </contour>
    <contour>
      <point x="25" y="100" type="line"/>
      <point x="25" y="0" type="line"/>
      <point x="175" y="0" type="line"/>
      <point x="300" y="10" type="line"/>
      <point x="425" y="0" type="line"/>
      <point x="575" y="0" type="line"/>
      <point x="575" y="100" type="line"/>
      <point x="425" y="100" type="line"/>
      <point x="300" y="95" type="line"/>
      <point x="175" y="100" type="line"/>
    </contour>
  </outline>
</glyph>
<glyph name="bullet" format="1">
  <advance width="200"/>
  <unicode hex="2022"/>
  <outline>
    <contour>
      <point x="200" y="200" type="line"/>
      <point x="200" y="300" type="line"/>
      <point x="180" y="300" type="line" smooth="yes"/>
      <point x="160" y="300"/>
      <point x="150" y="290"/>
      <point x="135" y="275" type="curve"/>
      <point x="120" y="285" type="line"/>
      <point x="140" y="300"/>
      <point x="150" y="310"/>
      <point x="150" y="330" type="curve" smooth="yes"/>
      <point x="150" y="350" type="line"/>
      <point x="50" y="350" type="line"/>
      <point x="50" y="330" type="line" smooth="yes"/>
      <point x="50" y="310"/>
      <point x="60" y="300"/>
      <point x="75" y="285" type="curve"/>
      <point x="65" y="275" type="line"/>
      <point x="50" y="290"/>
      <point x="40" y="300"/>
      <point x="20" y="300" type="curve" smooth="yes"/>
      <point x="0" y="300" type="line"/>
      <point x="0" y="200" type="line"/>
      <point x="20" y="200" type="line" smooth="yes"/>
      <point x="40" y="200"/>
      <point x="50" y="210"/>
      <point x="65" y="225" type="curve"/>
      <point x="75" y="215" type="line"/>
      <point x="60" y="200"/>
      <point x="50" y="190"/>
      <point x="50" y="170" type="curve" smooth="yes"/>
      <point x="50" y="150" type="line"/>
      <point x="150" y="150" type="line"/>
      <point x="150" y="170" type="line" smooth="yes"/>
      <point x="150" y="190"/>
      <point x="140" y="200"/>
      <point x="120" y="215" type="curve"/>
      <point x="135" y="225" type="line"/>
      <point x="150" y="210"/>
      <point x="160" y="200"/>
      <point x="180" y="200" type="curve" smooth="yes"/>
    </contour>
  </outline>
</glyph>
<glyph name="perthousand" format="1">
  <advance width="1000"/>
  <unicode hex="2030"/>
  <outline>
    <contour>
      <point x="100" y="0" type="line"/>
      <point x="220" y="0" type="line"/>
      <point x="700" y="700" type="line"/>
      <point x="580" y="700" type="line"/>
    </contour>
    <contour>
      <point x="590" y="220" type="curve"/>
      <point x="635" y="220"/>
      <point x="655" y="200"/>
      <point x="655" y="160" type="curve" smooth="yes"/>
      <point x="655" y="140" type="line" smooth="yes"/>
      <point x="655" y="100"/>
      <point x="635" y="80"/>
      <point x="590" y="80" type="curve"/>
      <point x="545" y="80"/>
      <point x="530" y="100"/>
      <point x="530" y="150" type="curve"/>
      <point x="530" y="200"/>
      <point x="545" y="220"/>
    </contour>
    <contour>
      <point x="810" y="220" type="curve"/>
      <point x="855" y="220"/>
      <point x="870" y="200"/>
      <point x="870" y="150" type="curve"/>
      <point x="870" y="100"/>
      <point x="855" y="80"/>
      <point x="810" y="80" type="curve"/>
      <point x="765" y="80"/>
      <point x="745" y="100"/>
      <point x="745" y="140" type="curve" smooth="yes"/>
      <point x="745" y="160" type="line" smooth="yes"/>
      <point x="745" y="200"/>
      <point x="765" y="220"/>
    </contour>
    <contour>
      <point x="810" y="-10" type="curve"/>
      <point x="900" y="-10"/>
      <point x="960" y="40"/>
      <point x="960" y="150" type="curve"/>
      <point x="960" y="260"/>
      <point x="900" y="310"/>
      <point x="810" y="310" type="curve"/>
      <point x="760" y="310"/>
      <point x="725" y="295"/>
      <point x="700" y="265" type="curve"/>
      <point x="675" y="295"/>
      <point x="640" y="310"/>
      <point x="590" y="310" type="curve"/>
      <point x="500" y="310"/>
      <point x="440" y="260"/>
      <point x="440" y="150" type="curve"/>
      <point x="440" y="40"/>
      <point x="500" y="-10"/>
      <point x="590" y="-10" type="curve"/>
      <point x="640" y="-10"/>
      <point x="675" y="5"/>
      <point x="700" y="35" type="curve"/>
      <point x="725" y="5"/>
      <point x="760" y="-10"/>
    </contour>
    <component base="zero.sup"/>
  </outline>
</glyph>
<glyph name="guilsinglleft" format="1">
  <advance width="200"/>
  <unicode hex="2039"/>
  <outline>
    <contour>
      <point x="0" y="250" type="line"/>
      <point x="90" y="250" type="line"/>
      <point x="190" y="400" type="line"/>
      <point x="100" y="400" type="line"/>
    </contour>
    <contour>
      <point x="0" y="250" type="line"/>
      <point x="100" y="100" type="line"/>
      <point x="190" y="100" type="line"/>
      <point x="90" y="250" type="line"/>
    </contour>
  </outline>
</glyph>
<glyph name="trademark" format="1">
  <advance width="800"/>
  <unicode hex="2122"/>
  <outline>
    <contour>
      <point x="145" y="400" type="line"/>
      <point x="145" y="700" type="line"/>
      <point x="55" y="700" type="line"/>
      <point x="55" y="400" type="line"/>
    </contour>
    <contour>
      <point x="225" y="700" type="line"/>
      <point x="-25" y="700" type="line"/>
      <point x="-25" y="610" type="line"/>
      <point x="225" y="610" type="line"/>
    </contour>
    <contour>
      <point x="250" y="400" type="line"/>
      <point x="340" y="400" type="line"/>
      <point x="340" y="700" type="line"/>
      <point x="250" y="700" type="line"/>
    </contour>
    <contour>
      <point x="660" y="400" type="line"/>
      <point x="750" y="400" type="line"/>
      <point x="750" y="700" type="line"/>
      <point x="660" y="700" type="line"/>
    </contour>
    <contour>
      <point x="295" y="615" type="line"/>
      <point x="405" y="510"/>
      <point x="455" y="465"/>
      <point x="455" y="430" type="curve" smooth="yes"/>
      <point x="455" y="400" type="line"/>
      <point x="545" y="400" type="line"/>
      <point x="540" y="430" type="line" smooth="yes"/>
      <point x="530" y="485"/>
      <point x="515" y="525"/>
      <point x="400" y="640" type="curve" smooth="yes"/>
      <point x="340" y="700" type="line"/>
    </contour>
    <contour>
      <point x="705" y="615" type="curve"/>
      <point x="660" y="700" type="line"/>
      <point x="600" y="640" type="line" smooth="yes"/>
      <point x="485" y="525"/>
      <point x="470" y="485"/>
      <point x="460" y="430" type="curve" smooth="yes"/>
      <point x="455" y="400" type="line"/>
      <point x="545" y="400" type="line"/>
      <point x="545" y="430" type="line" smooth="yes"/>
      <point x="545" y="465"/>
      <point x="595" y="510"/>
    </contour>
  </outline>
</glyph>
<glyph name="northwestarrow" format="1">
  <advance width="800"/>
  <unicode hex="2196"/>
  <outline>
    <contour>
      <point x="655" y="25" type="line"/>
      <point x="725" y="95" type="line"/>
      <point x="365" y="455" type="line"/>
      <point x="140" y="660" type="line"/>
      <point x="90" y="610" type="line"/>
      <point x="295" y="390" type="line"/>
    </contour>
    <contour>
      <point x="70" y="700" type="line"/>
      <point x="50" y="680" type="line"/>
      <point x="145" y="610" type="line"/>
      <point x="170" y="615" type="line"/>
      <point x="285" y="605" type="line"/>
      <point x="680" y="600" type="line"/>
      <point x="690" y="610" type="line"/>
      <point x="605" y="700" type="line"/>
    </contour>
    <contour>
      <point x="50" y="680" type="line"/>
      <point x="50" y="145" type="line"/>
      <point x="140" y="60" type="line"/>
      <point x="150" y="70" type="line"/>
      <point x="145" y="465" type="line"/>
      <point x="135" y="580" type="line"/>
      <point x="140" y="605" type="line"/>
      <point x="155" y="620" type="line"/>
      <point x="70" y="700" type="line"/>
    </contour>
  </outline>
</glyph>
<glyph name="rightarrowoverleftarrow" format="1">
  <advance width="1000"/>
  <unicode hex="21C4"/>
  <outline>
    <contour>
      <point x="900" y="0" type="line"/>
      <point x="900" y="100" type="line"/>
      <point x="425" y="100" type="line"/>
      <point x="150" y="85" type="line"/>
      <point x="150" y="15" type="line"/>
      <point x="425" y="0" type="line"/>
    </contour>
    <contour>
      <point x="75" y="65" type="line"/>
      <point x="75" y="40" type="line"/>
      <point x="190" y="55" type="line"/>
      <point x="205" y="75" type="line"/>
      <point x="295" y="150" type="line"/>
      <point x="435" y="285" type="line"/>
      <point x="435" y="300" type="line"/>
      <point x="310" y="300" type="line"/>
    </contour>
    <contour>
      <point x="75" y="35" type="line"/>
      <point x="310" y="-200" type="line"/>
      <point x="435" y="-200" type="line"/>
      <point x="435" y="-185" type="line"/>
      <point x="295" y="-50" type="line"/>
      <point x="205" y="25" type="line"/>
      <point x="190" y="45" type="line"/>
      <point x="190" y="70" type="line"/>
      <point x="75" y="60" type="line"/>
    </contour>
    <contour>
      <point x="100" y="400" type="line"/>
      <point x="575" y="400" type="line"/>
      <point x="850" y="415" type="line"/>
      <point x="850" y="485" type="line"/>
      <point x="575" y="500" type="line"/>
      <point x="100" y="500" type="line"/>
    </contour>
    <contour>
      <point x="925" y="465" type="line"/>
      <point x="690" y="700" type="line"/>
      <point x="565" y="700" type="line"/>
      <point x="565" y="685" type="line"/>
      <point x="705" y="550" type="line"/>
      <point x="795" y="475" type="line"/>
      <point x="810" y="455" type="line"/>
      <point x="925" y="440" type="line"/>
    </contour>
    <contour>
      <point x="925" y="435" type="line"/>
      <point x="925" y="460" type="line"/>
      <point x="810" y="470" type="line"/>
      <point x="810" y="445" type="line"/>
      <point x="795" y="425" type="line"/>
      <point x="705" y="350" type="line"/>
      <point x="565" y="215" type="line"/>
      <point x="565" y="200" type="line"/>
      <point x="690" y="200" type="line"/>
    </contour>
  </outline>
</glyph>
<glyph name="lessequal" format="1">
  <advance width="400"/>
  <unicode hex="2264"/>
  <outline>
    <contour>
      <point x="35" y="320" type="line"/>
      <point x="215" y="150" type="line"/>
      <point x="350" y="150" type="line"/>
      <point x="350" y="165" type="line"/>
      <point x="205" y="295" type="line"/>
      <point x="165" y="325" type="line"/>
      <point x="165" y="340" type="line"/>
    </contour>
    <contour>
      <point x="350" y="0" type="line"/>
      <point x="350" y="100" type="line"/>
      <point x="50" y="100" type="line"/>
      <point x="50" y="0" type="line"/>
    </contour>
    <contour>
      <point x="35" y="330" type="line"/>
      <point x="35" y="320" type="line"/>
      <point x="165" y="310" type="line"/>
      <point x="165" y="325" type="line"/>
      <point x="205" y="355" type="line"/>
      <point x="350" y="485" type="line"/>
      <point x="350" y="500" type="line"/>
      <point x="215" y="500" type="line"/>
    </contour>
  </outline>
</glyph>
<glyph name="heavyverticalandhorizontal" format="1">
  <advance width="1000"/>
  <unicode hex="254B"/>
  <outline>
    <contour>
      <point x="50" y="200" type="line"/>
      <point x="950" y="200" type="line"/>
      <point x="950" y="300" type="line"/>
      <point x="50" y="300" type="line"/>
    </contour>
    <contour>
      <point x="550" y="-200" type="line"/>
      <point x="550" y="700" type="line"/>
      <point x="450" y="700" type="line"/>
      <point x="450" y="-200" type="line"/>
    </contour>
  </outline>
</glyph>
<glyph name="squarewithblacksmallsquare" format="1">
  <advance width="1000"/>
  <unicode hex="25A3"/>
  <outline>
    <contour>
      <point x="350" y="100" type="line"/>
      <point x="650" y="100" type="line"/>
      <point x="650" y="400" type="line"/>
      <point x="350" y="400" type="line"/>
    </contour>
    <component base="whitelargesquare"/>
  </outline>
</glyph>
<glyph name="squarewithverticalfill" format="1">
  <advance width="1000"/>
  <unicode hex="25A5"/>
  <outline>
    <contour>
      <point x="550" y="-150" type="line"/>
      <point x="550" y="650" type="line"/>
      <point x="450" y="650" type="line"/>
      <point x="450" y="-150" type="line"/>
    </contour>
    <contour>
      <point x="350" y="-150" type="line"/>
      <point x="350" y="650" type="line"/>
      <point x="250" y="650" type="line"/>
      <point x="250" y="-150" type="line"/>
    </contour>
    <contour>
      <point x="750" y="-150" type="line"/>
      <point x="750" y="650" type="line"/>
      <point x="650" y="650" type="line"/>
      <point x="650" y="-150" type="line"/>
    </contour>
    <component base="whitelargesquare"/>
  </outline>
</glyph>
<glyph name="squareuplefttolowrightfill" format="1">
  <advance width="1000"/>
  <unicode hex="25A7"/>
  <outline>
    <contour>
      <point x="75" y="605" type="line"/>
      <point x="855" y="-175" type="line"/>
      <point x="925" y="-105" type="line"/>
      <point x="145" y="675" type="line"/>
    </contour>
    <contour>
      <point x="310" y="650" type="line"/>
      <point x="900" y="60" type="line"/>
      <point x="900" y="200" type="line"/>
      <point x="450" y="650" type="line"/>
    </contour>
    <contour>
      <point x="590" y="650" type="line"/>
      <point x="905" y="335" type="line"/>
      <point x="905" y="475" type="line"/>
      <point x="715" y="665" type="line"/>
    </contour>
    <contour>
      <point x="690" y="-150" type="line"/>
      <point x="100" y="440" type="line"/>
      <point x="100" y="300" type="line"/>
      <point x="550" y="-150" type="line"/>
    </contour>
    <contour>
      <point x="410" y="-150" type="line"/>
      <point x="95" y="165" type="line"/>
      <point x="95" y="25" type="line"/>
      <point x="285" y="-165" type="line"/>
    </contour>
    <component base="whitelargesquare"/>
  </outline>
</glyph>
<glyph name="squarediagonalcrosshatchfill" format="1">
  <advance width="1000"/>
  <unicode hex="25A9"/>
  <outline>
    <contour>
      <point x="50" y="630" type="line"/>
      <point x="850" y="-170" type="line"/>
      <point x="850" y="-30" type="line"/>
      <point x="190" y="630" type="line"/>
    </contour>
    <contour>
      <point x="950" y="630" type="line"/>
      <point x="810" y="630" type="line"/>
      <point x="150" y="-30" type="line"/>
      <point x="150" y="-170" type="line"/>
    </contour>
    <component base="diamondinsquare"/>
  </outline>
</glyph>
<glyph name="diamondwithblacksmalldiamond" format="1">
  <advance width="1000"/>
  <unicode hex="25C8"/>
  <outline>
    <contour>
      <point x="500" y="3" type="line"/>
      <point x="748" y="250" type="line"/>
      <point x="500" y="500" type="line"/>
      <point x="253" y="250" type="line"/>
    </contour>
    <component base="whitediamond"/>
  </outline>
</glyph>
<glyph name="fisheye" format="1">
  <advance width="1000"/>
  <unicode hex="25C9"/>
  <outline>
    <contour>
      <point x="500" y="70" type="curve" smooth="yes"/>
      <point x="385" y="70"/>
      <point x="320" y="130"/>
      <point x="320" y="250" type="curve" smooth="yes"/>
      <point x="320" y="370"/>
      <point x="385" y="430"/>
      <point x="500" y="430" type="curve" smooth="yes"/>
      <point x="620" y="430"/>
      <point x="680" y="370"/>
      <point x="680" y="250" type="curve" smooth="yes"/>
      <point x="680" y="130"/>
      <point x="620" y="70"/>
    </contour>
    <component base="whitecircle"/>
  </outline>
</glyph>
<glyph name="circlewithverticalfill" format="1">
  <advance width="1000"/>
  <unicode hex="25CD"/>
  <outline>
    <contour>
      <point x="350" y="-150" type="line"/>
      <point x="350" y="650" type="line"/>
      <point x="250" y="650" type="line"/>
      <point x="250" y="-150" type="line"/>
    </contour>
    <contour>
      <point x="750" y="-150" type="line"/>
      <point x="750" y="650" type="line"/>
      <point x="650" y="650" type="line"/>
      <point x="650" y="-150" type="line"/>
    </contour>
    <contour>
      <point x="550" y="-200" type="line"/>
      <point x="550" y="700" type="line"/>
      <point x="450" y="700" type="line"/>
      <point x="450" y="-200" type="line"/>
    </contour>
    <component base="whitecircle"/>
  </outline>
</glyph>
<glyph name="bullseye" format="1">
  <advance width="1000"/>
  <unicode hex="25CE"/>
  <outline>
    <contour>
      <point x="500" y="-10" type="curve" smooth="yes"/>
      <point x="670" y="-10"/>
      <point x="760" y="75"/>
      <point x="760" y="250" type="curve" smooth="yes"/>
      <point x="760" y="420"/>
      <point x="670" y="510"/>
      <point x="500" y="510" type="curve" smooth="yes"/>
      <point x="330" y="510"/>
      <point x="240" y="420"/>
      <point x="240" y="250" type="curve" smooth="yes"/>
      <point x="240" y="75"/>
      <point x="330" y="-10"/>
    </contour>
    <contour>
      <point x="500" y="85" type="curve" smooth="yes"/>
      <point x="390" y="85"/>
      <point x="335" y="140"/>
      <point x="335" y="250" type="curve" smooth="yes"/>
      <point x="335" y="360"/>
      <point x="390" y="415"/>
      <point x="500" y="415" type="curve" smooth="yes"/>
      <point x="610" y="415"/>
      <point x="665" y="360"/>
      <point x="665" y="250" type="curve" smooth="yes"/>
      <point x="665" y="140"/>
      <point x="610" y="85"/>
    </contour>
    <component base="whitecircle"/>
  </outline>
</glyph>
<glyph name="circlewithlefthalfblack" format="1">
  <advance width="1000"/>
  <unicode hex="25D0"/>
  <outline>
    <contour>
      <point x="500" y="-165" type="line"/>
      <point x="770" y="-165"/>
      <point x="915" y="-25"/>
      <point x="915" y="250" type="curve" smooth="yes"/>
      <point x="915" y="520"/>
      <point x="770" y="665"/>
      <point x="500" y="665" type="curve"/>
    </contour>
    <component base="whitecircle"/>
  </outline>
</glyph>
<glyph name="circlewithrighthalfblack" format="1">
  <advance width="1000"/>
  <unicode hex="25D1"/>
  <outline>
    <contour>
      <point x="500" y="-165" type="curve"/>
      <point x="500" y="665" type="line"/>
      <point x="230" y="665"/>
      <point x="85" y="520"/>
      <point x="85" y="250" type="curve" smooth="yes"/>
      <point x="85" y="-25"/>
      <point x="230" y="-165"/>
    </contour>
    <component base="whitecircle"/>
  </outline>
</glyph>
<glyph name="circlewithlowerhalfblack" format="1">
  <advance width="1000"/>
  <unicode hex="25D2"/>
  <outline>
    <contour>
      <point x="915" y="250" type="curve"/>
      <point x="85" y="250" type="line"/>
      <point x="85" y="-20"/>
      <point x="230" y="-165"/>
      <point x="500" y="-165" type="curve" smooth="yes"/>
      <point x="775" y="-165"/>
      <point x="915" y="-20"/>
    </contour>
    <component base="whitecircle"/>
  </outline>
</glyph>
<glyph name="circlewithupperhalfblack" format="1">
  <advance width="1000"/>
  <unicode hex="25D3"/>
  <outline>
    <contour>
      <point x="915" y="250" type="line"/>
      <point x="915" y="520"/>
      <point x="775" y="665"/>
      <point x="500" y="665" type="curve" smooth="yes"/>
      <point x="230" y="665"/>
      <point x="85" y="520"/>
      <point x="85" y="250" type="curve"/>
    </contour>
    <component base="whitecircle"/>
  </outline>
</glyph>
<glyph name="circleuprightquadrantblack" format="1">
  <advance width="1000"/>
  <unicode hex="25D4"/>
  <outline>
    <contour>
      <point x="915" y="250" type="line"/>
      <point x="915" y="520"/>
      <point x="775" y="665"/>
      <point x="500" y="665" type="curve"/>
      <point x="500" y="250" type="line"/>
    </contour>
    <component base="whitecircle"/>
  </outline>
</glyph>
<glyph name="blacklowerlefttriangle" format="1">
  <advance width="1000"/>
  <unicode hex="25E3"/>
  <outline>
    <contour>
      <point x="950" y="-200" type="line"/>
      <point x="50" y="700" type="line"/>
      <point x="50" y="-200" type="line"/>
    </contour>
  </outline>
</glyph>
<glyph name="squarewithlefthalfblack" format="1">
  <advance width="1000"/>
  <unicode hex="25E7"/>
  <outline>
    <contour>
      <point x="70" y="-180" type="line"/>
      <point x="500" y="-180" type="line"/>
      <point x="500" y="675" type="line"/>
      <point x="70" y="675" type="line"/>
    </contour>
    <component base="whitelargesquare"/>
  </outline>
</glyph>
<glyph name="squareupleftdiagonalhalfblack" format="1">
  <advance width="1000"/>
  <unicode hex="25E9"/>
  <outline>
    <contour>
      <point x="80" y="-170" type="line"/>
      <point x="920" y="670" type="line"/>
      <point x="80" y="670" type="line"/>
    </contour>
    <component base="whitelargesquare"/>
  </outline>
</glyph>
<glyph name="squarelowrightdiagonalhalfblack" format="1">
  <advance width="1000"/>
  <unicode hex="25EA"/>
  <outline>
    <contour>
      <point x="920" y="670" type="line"/>
      <point x="80" y="-170" type="line"/>
      <point x="920" y="-170" type="line"/>
    </contour>
    <component base="whitelargesquare"/>
  </outline>
</glyph>
<glyph name="squareverticalbisectingline" format="1">
  <advance width="1000"/>
  <unicode hex="25EB"/>
  <outline>
    <contour>
      <point x="550" y="-150" type="line"/>
      <point x="550" y="650" type="line"/>
      <point x="450" y="650" type="line"/>
      <point x="450" y="-150" type="line"/>
    </contour>
    <component base="whitelargesquare"/>
  </outline>
</glyph>
<glyph name="squarewithupperleftquadrant" format="1">
  <advance width="1000"/>
  <unicode hex="25F0"/>
  <outline>
    <contour>
      <point x="100" y="200" type="line"/>
      <point x="550" y="200" type="line"/>
      <point x="550" y="300" type="line"/>
      <point x="100" y="300" type="line"/>
    </contour>
    <contour>
      <point x="550" y="200" type="line"/>
      <point x="550" y="650" type="line"/>
      <point x="450" y="650" type="line"/>
      <point x="450" y="200" type="line"/>
    </contour>
    <component base="whitelargesquare"/>
  </outline>
</glyph>
<glyph name="squarewithlowerleftquadrant" format="1">
  <advance width="1000"/>
  <unicode hex="25F1"/>
  <outline>
    <contour>
      <point x="100" y="300" type="line"/>
      <point x="100" y="200" type="line"/>
      <point x="550" y="200" type="line"/>
      <point x="550" y="300" type="line"/>
    </contour>
    <contour>
      <point x="550" y="300" type="line"/>
      <point x="450" y="300" type="line"/>
      <point x="450" y="-150" type="line"/>
      <point x="550" y="-150" type="line"/>
    </contour>
    <component base="whitelargesquare"/>
  </outline>
</glyph>
<glyph name="squarewithupperrightquadrant" format="1">
  <advance width="1000"/>
  <unicode hex="25F3"/>
  <outline>
    <contour>
      <point x="900" y="300" type="line"/>
      <point x="450" y="300" type="line"/>
      <point x="450" y="200" type="line"/>
      <point x="900" y="200" type="line"/>
    </contour>
    <contour>
      <point x="450" y="300" type="line"/>
      <point x="450" y="-150" type="line"/>
      <point x="550" y="-150" type="line"/>
      <point x="550" y="300" type="line"/>
    </contour>
    <component base="whitelargesquare"/>
  </outline>
</glyph>
<glyph name="whiteuppointingindex" format="1">
  <advance width="600"/>
  <unicode hex="1F446"/>
  <outline>
    <contour>
      <point x="95" y="395" type="curve" smooth="yes"/>
      <point x="95" y="750"/>
      <point x="160" y="760"/>
      <point x="195" y="760" type="curve" smooth="yes"/>
      <point x="225" y="760"/>
      <point x="245" y="740"/>
      <point x="245" y="650" type="curve" smooth="yes"/>
      <point x="245" y="620"/>
      <point x="245" y="535"/>
      <point x="245" y="470" type="curve" smooth="yes"/>
      <point x="245" y="465"/>
      <point x="235" y="465"/>
      <point x="235" y="460" type="curve"/>
      <point x="235" y="395" type="line"/>
      <point x="205" y="395" type="line" smooth="yes"/>
      <point x="205" y="395"/>
      <point x="205" y="600"/>
      <point x="205" y="650" type="curve" smooth="yes"/>
      <point x="205" y="700"/>
      <point x="205" y="720"/>
      <point x="190" y="720" type="curve" smooth="yes"/>
      <point x="160" y="720"/>
      <point x="140" y="625"/>
      <point x="135" y="360" type="curve" smooth="yes"/>
      <point x="135" y="340" type="line"/>
      <point x="115" y="350" type="line"/>
      <point x="100" y="350"/>
      <point x="95" y="375"/>
    </contour>
    <contour>
      <point x="230" y="425" type="line"/>
      <point x="230" y="485"/>
      <point x="255" y="505"/>
      <point x="280" y="505" type="curve"/>
      <point x="310" y="505"/>
      <point x="350" y="495"/>
      <point x="350" y="340" type="curve" smooth="yes"/>
      <point x="350" y="225"/>
      <point x="310" y="205"/>
      <point x="275" y="205" type="curve" smooth="yes"/>
      <point x="235" y="205"/>
      <point x="220" y="240"/>
      <point x="225" y="275" type="curve"/>
      <point x="250" y="305" type="line"/>
      <point x="250" y="285" type="line" smooth="yes"/>
      <point x="250" y="270"/>
      <point x="255" y="245"/>
      <point x="275" y="245" type="curve" smooth="yes"/>
      <point x="300" y="245"/>
      <point x="310" y="280"/>
      <point x="310" y="340" type="curve" smooth="yes"/>
      <point x="310" y="415"/>
      <point x="300" y="465"/>
      <point x="270" y="465" type="curve" smooth="yes"/>
      <point x="245" y="465"/>
      <point x="235" y="435"/>
      <point x="235" y="415" type="curve"/>
    </contour>
    <contour>
      <point x="325" y="470"/>
      <point x="345" y="490"/>
      <point x="375" y="490" type="curve" smooth="yes"/>
      <point x="410" y="490"/>
      <point x="455" y="450"/>
      <point x="455" y="345" type="curve" smooth="yes"/>
      <point x="455" y="245"/>
      <point x="420" y="190"/>
      <point x="380" y="190" type="curve" smooth="yes"/>
      <point x="350" y="190"/>
      <point x="325" y="215"/>
      <point x="330" y="255" type="curve"/>
      <point x="350" y="340" type="line"/>
      <point x="350" y="265" type="line" smooth="yes"/>
      <point x="350" y="245"/>
      <point x="360" y="230"/>
      <point x="380" y="230" type="curve" smooth="yes"/>
      <point x="410" y="230"/>
      <point x="415" y="295"/>
      <point x="415" y="345" type="curve" smooth="yes"/>
      <point x="415" y="400"/>
      <point x="395" y="450"/>
      <point x="370" y="450" type="curve" smooth="yes"/>
      <point x="355" y="450"/>
      <point x="350" y="440"/>
      <point x="350" y="425" type="curve" smooth="yes"/>
      <point x="350" y="355" type="line"/>
      <point x="325" y="415" type="line"/>
    </contour>
    <contour>
      <point x="435" y="385" type="line"/>
      <point x="440" y="425"/>
      <point x="445" y="450"/>
      <point x="480" y="450" type="curve" smooth="yes"/>
      <point x="505" y="450"/>
      <point x="555" y="420"/>
      <point x="555" y="320" type="curve" smooth="yes"/>
      <point x="555" y="230"/>
      <point x="515" y="180"/>
      <point x="480" y="180" type="curve" smooth="yes"/>
      <point x="445" y="180"/>
      <point x="430" y="205"/>
      <point x="430" y="270" type="curve"/>
      <point x="455" y="345" type="line"/>
      <point x="455" y="260" type="line" smooth="yes"/>
      <point x="455" y="240"/>
      <point x="455" y="220"/>
      <point x="480" y="220" type="curve" smooth="yes"/>
      <point x="505" y="220"/>
      <point x="515" y="280"/>
      <point x="515" y="320" type="curve" smooth="yes"/>
      <point x="515" y="370"/>
      <point x="495" y="410"/>
      <point x="475" y="410" type="curve" smooth="yes"/>
      <point x="455" y="410"/>
      <point x="455" y="385"/>
      <point x="455" y="365" type="curve" smooth="yes"/>
      <point x="455" y="345" type="line"/>
    </contour>
    <contour>
      <point x="510" y="0" type="curve"/>
      <point x="455" y="-50"/>
      <point x="225" y="-70"/>
      <point x="145" y="5" type="curve" smooth="yes"/>
      <point x="80" y="70"/>
      <point x="40" y="220"/>
      <point x="40" y="250" type="curve" smooth="yes"/>
      <point x="40" y="290"/>
      <point x="50" y="320"/>
      <point x="150" y="380" type="curve"/>
      <point x="195" y="410"/>
      <point x="260" y="430"/>
      <point x="285" y="405" type="curve" smooth="yes"/>
      <point x="305" y="385"/>
      <point x="305" y="345"/>
      <point x="225" y="265" type="curve"/>
      <point x="210" y="250" type="line" smooth="yes"/>
      <point x="190" y="230"/>
      <point x="165" y="235"/>
      <point x="155" y="250" type="curve"/>
      <point x="190" y="285"/>
      <point x="275" y="360"/>
      <point x="255" y="380" type="curve" smooth="yes"/>
      <point x="245" y="390"/>
      <point x="225" y="390"/>
      <point x="170" y="350" type="curve" smooth="yes"/>
      <point x="100" y="300"/>
      <point x="80" y="280"/>
      <point x="80" y="250" type="curve"/>
      <point x="80" y="220"/>
      <point x="115" y="105"/>
      <point x="160" y="40" type="curve"/>
      <point x="240" y="95"/>
      <point x="405" y="115"/>
      <point x="490" y="45" type="curve"/>
      <point x="495" y="100"/>
      <point x="500" y="170"/>
      <point x="490" y="205" type="curve"/>
      <point x="525" y="215" type="line"/>
      <point x="540" y="160"/>
      <point x="540" y="60"/>
    </contour>
    <contour>
      <point x="375" y="25" type="curve" smooth="yes"/>
      <point x="375" y="35"/>
      <point x="370" y="45"/>
      <point x="340" y="45" type="curve"/>
      <point x="300" y="45"/>
      <point x="295" y="35"/>
      <point x="295" y="25" type="curve" smooth="yes"/>
      <point x="295" y="15"/>
      <point x="300" y="5"/>
      <point x="340" y="5" type="curve"/>
      <point x="370" y="5"/>
      <point x="375" y="15"/>
    </contour>
  </outline>
</glyph>
<glyph name="clockwisearrows" format="1">
  <advance width="1200"/>
  <unicode hex="1F502"/>
  <outline>
    <contour>
      <point x="885" y="0" type="line"/>
      <point x="885" y="100" type="line"/>
      <point x="715" y="100" type="line"/>
      <point x="440" y="85" type="line"/>
      <point x="440" y="15" type="line"/>
      <point x="715" y="0" type="line"/>
    </contour>
    <contour>
      <point x="365" y="65" type="line"/>
      <point x="365" y="40" type="line"/>
      <point x="480" y="55" type="line"/>
      <point x="495" y="75" type="line"/>
      <point x="585" y="150" type="line"/>
      <point x="650" y="210" type="line"/>
      <point x="650" y="225" type="line"/>
      <point x="525" y="225" type="line"/>
    </contour>
    <contour>
      <point x="365" y="35" type="line"/>
      <point x="600" y="-200" type="line"/>
      <point x="725" y="-200" type="line"/>
      <point x="725" y="-185" type="line"/>
      <point x="585" y="-50" type="line"/>
      <point x="495" y="25" type="line"/>
      <point x="480" y="45" type="line"/>
      <point x="480" y="70" type="line"/>
      <point x="365" y="60" type="line"/>
    </contour>
    <contour>
      <point x="1145" y="280" type="line" smooth="yes"/>
      <point x="1145" y="420"/>
      <point x="1075" y="500"/>
      <point x="925" y="500" type="curve"/>
      <point x="885" y="500" type="line"/>
      <point x="885" y="400" type="line"/>
      <point x="905" y="400" type="line" smooth="yes"/>
      <point x="1025" y="400"/>
      <point x="1045" y="380"/>
      <point x="1045" y="250" type="curve"/>
      <point x="1145" y="250" type="line"/>
    </contour>
    <contour>
      <point x="1145" y="220" type="curve" smooth="yes"/>
      <point x="1145" y="250" type="line"/>
      <point x="1045" y="250" type="line"/>
      <point x="1045" y="120"/>
      <point x="1025" y="100"/>
      <point x="905" y="100" type="curve" smooth="yes"/>
      <point x="885" y="100" type="line"/>
      <point x="885" y="0" type="line"/>
      <point x="925" y="0" type="line"/>
      <point x="1075" y="0"/>
      <point x="1145" y="80"/>
    </contour>
    <contour>
      <point x="470" y="500" type="line"/>
      <point x="470" y="400" type="line"/>
      <point x="485" y="400" type="line"/>
      <point x="760" y="415" type="line"/>
      <point x="760" y="485" type="line"/>
      <point x="485" y="500" type="line"/>
    </contour>
    <contour>
      <point x="835" y="435" type="line"/>
      <point x="835" y="460" type="line"/>
      <point x="720" y="445" type="line"/>
      <point x="705" y="425" type="line"/>
      <point x="615" y="350" type="line"/>
      <point x="550" y="290" type="line"/>
      <point x="550" y="275" type="line"/>
      <point x="675" y="275" type="line"/>
    </contour>
    <contour>
      <point x="835" y="465" type="line"/>
      <point x="600" y="700" type="line"/>
      <point x="475" y="700" type="line"/>
      <point x="475" y="685" type="line"/>
      <point x="615" y="550" type="line"/>
      <point x="705" y="475" type="line"/>
      <point x="720" y="455" type="line"/>
      <point x="720" y="430" type="line"/>
      <point x="835" y="440" type="line"/>
    </contour>
    <contour>
      <point x="55" y="220" type="line" smooth="yes"/>
      <point x="55" y="80"/>
      <point x="125" y="0"/>
      <point x="275" y="0" type="curve"/>
      <point x="315" y="0" type="line"/>
      <point x="315" y="100" type="line"/>
      <point x="295" y="100" type="line" smooth="yes"/>
      <point x="175" y="100"/>
      <point x="155" y="120"/>
      <point x="155" y="250" type="curve"/>
      <point x="55" y="250" type="line"/>
    </contour>
    <contour>
      <point x="55" y="280" type="curve" smooth="yes"/>
      <point x="55" y="250" type="line"/>
      <point x="155" y="250" type="line"/>
      <point x="155" y="380"/>
      <point x="175" y="400"/>
      <point x="295" y="400" type="curve" smooth="yes"/>
      <point x="470" y="400" type="line"/>
      <point x="470" y="500" type="line"/>
      <point x="275" y="500" type="line"/>
      <point x="125" y="500"/>
      <point x="55" y="420"/>
    </contour>
    <contour>
      <point x="685.0" y="250.0" type="move" name="top"/>
    </contour>
  </outline>
</glyph>
<glyph name="AE.small" format="1">
  <advance width="600"/>
  <outline>
    <contour>
      <point x="300" y="0" type="line"/>
      <point x="550" y="0" type="line"/>
      <point x="550" y="100" type="line"/>
      <point x="300" y="100" type="line"/>
    </contour>
    <contour>
      <point x="200" y="400" type="line"/>
      <point x="500" y="400" type="line"/>
      <point x="500" y="500" type="line"/>
      <point x="200" y="500" type="line"/>
    </contour>
    <contour>
      <point x="300" y="200" type="line"/>
      <point x="500" y="200" type="line"/>
      <point x="500" y="300" type="line"/>
      <point x="300" y="300" type="line"/>
    </contour>
    <contour>
      <point x="250" y="500" type="curve"/>
      <point x="160" y="470" type="line"/>
      <point x="220" y="370"/>
      <point x="250" y="270"/>
      <point x="250" y="150" type="curve" smooth="yes"/>
      <point x="250" y="0" type="line"/>
      <point x="350" y="0" type="line"/>
      <point x="350" y="150" type="line" smooth="yes"/>
      <point x="350" y="260"/>
      <point x="310" y="400"/>
    </contour>
    <contour>
      <point x="150" y="500" type="line"/>
      <point x="90" y="400"/>
      <point x="50" y="260"/>
      <point x="50" y="150" type="curve" smooth="yes"/>
      <point x="50" y="0" type="line"/>
      <point x="150" y="0" type="line"/>
      <point x="150" y="150" type="line" smooth="yes"/>
      <point x="150" y="270"/>
      <point x="180" y="370"/>
      <point x="240" y="470" type="curve"/>
      <point x="250" y="500" type="line"/>
    </contour>
    <contour>
      <point x="300" y="100" type="line"/>
      <point x="300" y="200" type="line"/>
      <point x="100" y="200" type="line"/>
      <point x="100" y="100" type="line"/>
    </contour>
  </outline>
</glyph>
<glyph name="A.small" format="1">
  <advance width="600"/>
  <outline>
    <contour>
      <point x="500" y="200" type="curve"/>
      <point x="500" y="290" type="line"/>
      <point x="410" y="265"/>
      <point x="190" y="265"/>
      <point x="100" y="290" type="curve"/>
      <point x="100" y="200" type="line"/>
      <point x="220" y="180"/>
      <point x="385" y="180"/>
    </contour>
    <contour>
      <point x="250" y="500" type="line"/>
      <point x="95" y="420"/>
      <point x="50" y="305"/>
      <point x="50" y="150" type="curve" smooth="yes"/>
      <point x="50" y="0" type="line"/>
      <point x="150" y="0" type="line"/>
      <point x="150" y="150" type="line" smooth="yes"/>
      <point x="150" y="310"/>
      <point x="195" y="380"/>
      <point x="340" y="450" type="curve"/>
    </contour>
    <contour>
      <point x="350" y="500" type="curve"/>
      <point x="250" y="500" type="line"/>
      <point x="260" y="450" type="line"/>
      <point x="405" y="380"/>
      <point x="450" y="310"/>
      <point x="450" y="150" type="curve" smooth="yes"/>
      <point x="450" y="0" type="line"/>
      <point x="550" y="0" type="line"/>
      <point x="550" y="150" type="line" smooth="yes"/>
      <point x="550" y="305"/>
      <point x="505" y="420"/>
    </contour>
    <contour>
      <point x="300.0" y="450.0" type="move" name="top"/>
    </contour>
  </outline>
</glyph>
<glyph name="B.small" format="1">
  <advance width="600"/>
  <outline>
    <contour>
      <point x="405" y="0" type="line"/>
      <point x="485" y="0"/>
      <point x="555" y="60"/>
      <point x="555" y="150" type="curve"/>
      <point x="455" y="150" type="line"/>
      <point x="455" y="110"/>
      <point x="435" y="100"/>
      <point x="405" y="100" type="curve"/>
      <point x="110" y="100" type="line"/>
      <point x="110" y="0" type="line"/>
    </contour>
    <contour>
      <point x="405" y="200" type="line"/>
      <point x="435" y="200"/>
      <point x="455" y="190"/>
      <point x="455" y="150" type="curve" smooth="yes"/>
      <point x="555" y="150" type="line"/>
      <point x="555" y="240"/>
      <point x="485" y="300"/>
      <point x="405" y="300" type="curve"/>
      <point x="100" y="300" type="line"/>
      <point x="130" y="200" type="line"/>
    </contour>
    <contour>
      <point x="150" y="500" type="line"/>
      <point x="50" y="500" type="line"/>
      <point x="50" y="0" type="line"/>
      <point x="150" y="0" type="line"/>
    </contour>
    <contour>
      <point x="405" y="500" type="curve"/>
      <point x="110" y="500" type="line"/>
      <point x="110" y="400" type="line"/>
      <point x="405" y="400" type="line"/>
      <point x="435" y="400"/>
      <point x="455" y="390"/>
      <point x="455" y="350" type="curve"/>
      <point x="555" y="350" type="line"/>
      <point x="555" y="440"/>
      <point x="485" y="500"/>
    </contour>
    <contour>
      <point x="405" y="300" type="curve"/>
      <point x="130" y="300" type="line"/>
      <point x="100" y="200" type="line"/>
      <point x="405" y="200" type="line"/>
      <point x="485" y="200"/>
      <point x="555" y="260"/>
      <point x="555" y="350" type="curve"/>
      <point x="455" y="350" type="line" smooth="yes"/>
      <point x="455" y="310"/>
      <point x="435" y="300"/>
    </contour>
  </outline>
</glyph>
<glyph name="D.small" format="1">
  <advance width="600"/>
  <outline>
    <contour>
      <point x="150" y="0" type="line"/>
      <point x="150" y="500" type="line"/>
      <point x="50" y="500" type="line"/>
      <point x="50" y="0" type="line"/>
    </contour>
    <contour>
      <point x="330" y="500" type="curve" smooth="yes"/>
      <point x="110" y="500" type="line"/>
      <point x="110" y="400" type="line"/>
      <point x="300" y="400" type="line"/>
      <point x="410" y="400"/>
      <point x="450" y="380"/>
      <point x="450" y="260" type="curve" smooth="yes"/>
      <point x="450" y="250" type="line"/>
      <point x="550" y="250" type="line"/>
      <point x="550" y="280" type="line"/>
      <point x="550" y="430"/>
      <point x="470" y="500"/>
    </contour>
    <contour>
      <point x="330.0" y="0.0" type="line" smooth="yes"/>
      <point x="470" y="0"/>
      <point x="550.0" y="70.0"/>
      <point x="550.0" y="220.0" type="curve"/>
      <point x="550" y="250" type="line"/>
      <point x="450" y="250" type="line"/>
      <point x="450.0" y="240.0" type="line" smooth="yes"/>
      <point x="450" y="120"/>
      <point x="410.0" y="100.0"/>
      <point x="300.0" y="100.0" type="curve"/>
      <point x="110" y="100" type="line"/>
      <point x="110" y="0" type="line"/>
    </contour>
  </outline>
</glyph>
<glyph name="G.small" format="1">
  <advance width="600"/>
  <outline>
    <contour>
      <point x="550" y="370" type="line"/>
      <point x="550" y="460"/>
      <point x="490" y="510"/>
      <point x="300" y="510" type="curve" smooth="yes"/>
      <point x="120" y="510"/>
      <point x="50" y="440"/>
      <point x="50" y="310" type="curve"/>
      <point x="50" y="250" type="line"/>
      <point x="150" y="250" type="line"/>
      <point x="150" y="310" type="line" smooth="yes"/>
      <point x="150" y="390"/>
      <point x="170" y="410"/>
      <point x="300" y="410" type="curve" smooth="yes"/>
      <point x="430" y="410"/>
      <point x="450" y="400"/>
      <point x="450" y="360" type="curve"/>
      <point x="450" y="345" type="line"/>
      <point x="550" y="345" type="line"/>
    </contour>
    <contour>
      <point x="450" y="70" type="curve"/>
      <point x="450" y="200" type="line"/>
      <point x="450.0" y="123.0"/>
      <point x="390" y="90"/>
      <point x="300" y="90" type="curve" smooth="yes"/>
      <point x="170" y="90"/>
      <point x="150" y="110"/>
      <point x="150" y="190" type="curve" smooth="yes"/>
      <point x="150" y="250" type="line"/>
      <point x="50" y="250" type="line"/>
      <point x="50" y="190" type="line"/>
      <point x="50" y="60"/>
      <point x="120" y="-10"/>
      <point x="270" y="-10" type="curve"/>
      <point x="390.0" y="-10.0"/>
      <point x="430" y="25"/>
    </contour>
    <contour>
      <point x="550" y="300" type="line"/>
      <point x="450" y="300" type="line"/>
      <point x="450" y="70" type="line"/>
      <point x="460" y="0" type="line"/>
      <point x="550" y="0" type="line"/>
    </contour>
    <contour>
      <point x="300" y="200" type="line"/>
      <point x="600" y="200" type="line"/>
      <point x="600" y="300" type="line"/>
      <point x="300" y="300" type="line"/>
    </contour>
  </outline>
</glyph>
<glyph name="I.mono" format="1">
  <advance width="600"/>
  <outline>
    <contour>
      <point x="250" y="0" type="line"/>
      <point x="350" y="0" type="line"/>
      <point x="350" y="700" type="line"/>
      <point x="250" y="700" type="line"/>
    </contour>
    <contour>
      <point x="50" y="0" type="line"/>
      <point x="550" y="0" type="line"/>
      <point x="550" y="100" type="line"/>
      <point x="50" y="100" type="line"/>
    </contour>
    <contour>
      <point x="50" y="600" type="line"/>
      <point x="550" y="600" type="line"/>
      <point x="550" y="700" type="line"/>
      <point x="50" y="700" type="line"/>
    </contour>
  </outline>
</glyph>
<glyph name="I.small" format="1">
  <advance width="200"/>
  <outline>
    <contour>
      <point x="50" y="0" type="line"/>
      <point x="150" y="0" type="line"/>
      <point x="150" y="500" type="line"/>
      <point x="50" y="500" type="line"/>
    </contour>
    <contour>
      <point x="100" y="450" type="move" name="top"/>
    </contour>
  </outline>
</glyph>
<glyph name="K.small" format="1">
  <advance width="600"/>
  <outline>
    <contour>
      <point x="50" y="500" type="line"/>
      <point x="50" y="0" type="line"/>
      <point x="150" y="0" type="line"/>
      <point x="150" y="500" type="line"/>
    </contour>
    <contour>
      <point x="130" y="300" type="line"/>
      <point x="130" y="200" type="line"/>
      <point x="250" y="200" type="line"/>
      <point x="250" y="300" type="line"/>
    </contour>
    <contour>
      <point x="340" y="270" type="curve"/>
      <point x="225" y="300" type="line"/>
      <point x="225" y="200" type="line"/>
      <point x="340" y="200" type="line"/>
      <point x="420" y="200"/>
      <point x="430" y="190"/>
      <point x="440" y="100" type="curve" smooth="yes"/>
      <point x="450" y="0" type="line"/>
      <point x="550" y="0" type="line"/>
      <point x="540" y="100" type="line" smooth="yes"/>
      <point x="530" y="220"/>
      <point x="470" y="270"/>
    </contour>
    <contour>
      <point x="340" y="230" type="line"/>
      <point x="470" y="230"/>
      <point x="530" y="280"/>
      <point x="540" y="400" type="curve" smooth="yes"/>
      <point x="550" y="500" type="line"/>
      <point x="450" y="500" type="line"/>
      <point x="440" y="400" type="line" smooth="yes"/>
      <point x="430" y="310"/>
      <point x="420" y="300"/>
      <point x="340" y="300" type="curve"/>
      <point x="225" y="300" type="line"/>
      <point x="225" y="200" type="line"/>
    </contour>
  </outline>
</glyph>
<glyph name="L.small" format="1">
  <advance width="400"/>
  <outline>
    <contour>
      <point x="50" y="500" type="line"/>
      <point x="50" y="0" type="line"/>
      <point x="150" y="0" type="line"/>
      <point x="150" y="500" type="line"/>
    </contour>
    <contour>
      <point x="100" y="100" type="line"/>
      <point x="100" y="0" type="line"/>
      <point x="375" y="0" type="line"/>
      <point x="375" y="100" type="line"/>
    </contour>
  </outline>
</glyph>
<glyph name="Lslash.small" format="1">
  <advance width="400"/>
  <outline>
    <contour>
      <point x="10" y="185" type="line"/>
      <point x="305" y="280" type="line"/>
      <point x="305" y="360" type="line"/>
      <point x="10" y="265" type="line"/>
    </contour>
    <component base="L.small"/>
  </outline>
</glyph>
<glyph name="M.small" format="1">
  <advance width="600"/>
  <outline>
    <contour>
      <point x="50" y="0" type="line"/>
      <point x="150" y="0" type="line"/>
      <point x="150" y="500" type="line"/>
      <point x="50" y="500" type="line"/>
    </contour>
    <contour>
      <point x="450" y="0" type="line"/>
      <point x="550" y="0" type="line"/>
      <point x="550" y="500" type="line"/>
      <point x="450" y="500" type="line"/>
    </contour>
    <contour>
      <point x="70" y="430" type="line"/>
      <point x="200" y="185" type="line" smooth="yes"/>
      <point x="245" y="100"/>
      <point x="250" y="85"/>
      <point x="250" y="30" type="curve" smooth="yes"/>
      <point x="250" y="0" type="line"/>
      <point x="350" y="0" type="line"/>
      <point x="350" y="30" type="line" smooth="yes"/>
      <point x="350" y="92.5925925926"/>
      <point x="318.445521044" y="178.422187098"/>
      <point x="260" y="290" type="curve" smooth="yes"/>
      <point x="150" y="500" type="line"/>
    </contour>
    <contour>
      <point x="530" y="430" type="line"/>
      <point x="450" y="500" type="line"/>
      <point x="340" y="290" type="line" smooth="yes"/>
      <point x="281.554478956" y="178.422187098"/>
      <point x="250" y="92.5925925926"/>
      <point x="250" y="30" type="curve" smooth="yes"/>
      <point x="250" y="0" type="line"/>
      <point x="350" y="0" type="line"/>
      <point x="350" y="30" type="line" smooth="yes"/>
      <point x="350" y="85"/>
      <point x="355" y="100"/>
      <point x="400" y="185" type="curve" smooth="yes"/>
    </contour>
  </outline>
</glyph>
<glyph name="N.small" format="1">
  <advance width="600"/>
  <outline>
    <contour>
      <point x="150" y="0" type="line"/>
      <point x="150" y="250" type="line"/>
      <point x="140" y="460" type="line"/>
      <point x="150" y="500" type="line"/>
      <point x="50" y="500" type="line"/>
      <point x="50" y="0" type="line"/>
    </contour>
    <contour>
      <point x="550" y="0" type="line"/>
      <point x="550" y="500" type="line"/>
      <point x="450" y="500" type="line"/>
      <point x="450" y="250" type="line"/>
      <point x="460" y="40" type="line"/>
      <point x="450" y="0" type="line"/>
    </contour>
    <contour>
      <point x="530" y="50" type="line"/>
      <point x="150" y="500" type="line"/>
      <point x="70" y="450" type="line"/>
      <point x="450" y="0" type="line"/>
    </contour>
    <contour>
      <point x="310.0" y="450.0" type="move" name="top"/>
    </contour>
  </outline>
</glyph>
<glyph name="O.small" format="1">
  <advance width="600"/>
  <outline>
    <contour>
      <point x="300" y="410" type="curve"/>
      <point x="435" y="410"/>
      <point x="455" y="370"/>
      <point x="455" y="290" type="curve" smooth="yes"/>
      <point x="455" y="250" type="line"/>
      <point x="555" y="250" type="line"/>
      <point x="555" y="290" type="line"/>
      <point x="555" y="420"/>
      <point x="495" y="510"/>
      <point x="300" y="510" type="curve"/>
      <point x="105" y="510"/>
      <point x="45" y="420"/>
      <point x="45" y="290" type="curve"/>
      <point x="45" y="250" type="line"/>
      <point x="145" y="250" type="line"/>
      <point x="145" y="290" type="line" smooth="yes"/>
      <point x="145" y="370"/>
      <point x="165" y="410"/>
    </contour>
    <contour>
      <point x="300" y="90" type="curve"/>
      <point x="165" y="90"/>
      <point x="145" y="130"/>
      <point x="145" y="210" type="curve" smooth="yes"/>
      <point x="145" y="250" type="line"/>
      <point x="45" y="250" type="line"/>
      <point x="45" y="210" type="line"/>
      <point x="45" y="80"/>
      <point x="105" y="-10"/>
      <point x="300" y="-10" type="curve"/>
      <point x="495" y="-10"/>
      <point x="555" y="80"/>
      <point x="555" y="210" type="curve"/>
      <point x="555" y="250" type="line"/>
      <point x="455" y="250" type="line"/>
      <point x="455" y="210" type="line" smooth="yes"/>
      <point x="455" y="130"/>
      <point x="435" y="90"/>
    </contour>
    <contour>
      <point x="300" y="450" type="move" name="top"/>
    </contour>
  </outline>
</glyph>
<glyph name="P.small" format="1">
  <advance width="600"/>
  <outline>
    <contour>
      <point x="150" y="500" type="line"/>
      <point x="50" y="500" type="line"/>
      <point x="50" y="0" type="line"/>
      <point x="150" y="0" type="line"/>
    </contour>
    <contour>
      <point x="405" y="500" type="curve"/>
      <point x="110" y="500" type="line"/>
      <point x="110" y="400" type="line"/>
      <point x="405" y="400" type="line"/>
      <point x="435" y="400"/>
      <point x="455" y="390"/>
      <point x="455" y="350" type="curve"/>
      <point x="555" y="350" type="line"/>
      <point x="555" y="440"/>
      <point x="485" y="500"/>
    </contour>
    <contour>
      <point x="405" y="300" type="curve"/>
      <point x="130" y="300" type="line"/>
      <point x="100" y="200" type="line"/>
      <point x="405" y="200" type="line"/>
      <point x="485" y="200"/>
      <point x="555" y="260"/>
      <point x="555" y="350" type="curve"/>
      <point x="455" y="350" type="line" smooth="yes"/>
      <point x="455" y="310"/>
      <point x="435" y="300"/>
    </contour>
  </outline>
</glyph>
<glyph name="Q.small" format="1">
  <advance width="600"/>
  <outline>
    <contour>
      <point x="250" y="-50" type="line"/>
      <point x="350" y="-50" type="line"/>
      <point x="350" y="200" type="line"/>
      <point x="250" y="200" type="line"/>
    </contour>
    <component base="o"/>
  </outline>
</glyph>
<glyph name="R.small" format="1">
  <advance width="600"/>
  <outline>
    <contour>
      <point x="340" y="270" type="curve"/>
      <point x="300" y="300" type="line"/>
      <point x="300" y="200" type="line"/>
      <point x="340" y="200" type="line"/>
      <point x="420" y="200"/>
      <point x="430" y="190"/>
      <point x="445" y="100" type="curve" smooth="yes"/>
      <point x="460" y="0" type="line"/>
      <point x="560" y="0" type="line"/>
      <point x="545" y="100" type="line" smooth="yes"/>
      <point x="525" y="220"/>
      <point x="470" y="270"/>
    </contour>
    <contour>
      <point x="150" y="500" type="line"/>
      <point x="50" y="500" type="line"/>
      <point x="50" y="0" type="line"/>
      <point x="150" y="0" type="line"/>
    </contour>
    <contour>
      <point x="405" y="500" type="curve"/>
      <point x="110" y="500" type="line"/>
      <point x="110" y="400" type="line"/>
      <point x="405" y="400" type="line"/>
      <point x="435" y="400"/>
      <point x="455" y="390"/>
      <point x="455" y="350" type="curve"/>
      <point x="555" y="350" type="line"/>
      <point x="555" y="440"/>
      <point x="485" y="500"/>
    </contour>
    <contour>
      <point x="405" y="300" type="curve"/>
      <point x="130" y="300" type="line"/>
      <point x="100" y="200" type="line"/>
      <point x="405" y="200" type="line"/>
      <point x="485" y="200"/>
      <point x="555" y="260"/>
      <point x="555" y="350" type="curve"/>
      <point x="455" y="350" type="line" smooth="yes"/>
      <point x="455" y="310"/>
      <point x="435" y="300"/>
    </contour>
  </outline>
</glyph>
<glyph name="Thorn.small" format="1">
  <advance width="600"/>
  <outline>
    <contour>
      <point x="400" y="400" type="curve"/>
      <point x="110" y="400" type="line"/>
      <point x="110" y="300" type="line"/>
      <point x="400" y="300" type="line"/>
      <point x="430" y="300"/>
      <point x="450" y="290"/>
      <point x="450" y="250" type="curve"/>
      <point x="550" y="250" type="line"/>
      <point x="550" y="340"/>
      <point x="480" y="400"/>
    </contour>
    <contour>
      <point x="400" y="200" type="curve"/>
      <point x="130" y="200" type="line"/>
      <point x="100" y="100" type="line"/>
      <point x="400" y="100" type="line"/>
      <point x="480" y="100"/>
      <point x="550" y="160"/>
      <point x="550" y="250" type="curve"/>
      <point x="450" y="250" type="line" smooth="yes"/>
      <point x="450" y="210"/>
      <point x="430" y="200"/>
    </contour>
    <contour>
      <point x="150" y="0" type="line"/>
      <point x="150" y="500" type="line"/>
      <point x="50" y="500" type="line"/>
      <point x="50" y="0" type="line"/>
    </contour>
  </outline>
</glyph>
<glyph name="Y.small" format="1">
  <advance width="600"/>
  <outline>
    <contour>
      <point x="280" y="215" type="curve"/>
      <point x="370" y="270" type="line"/>
      <point x="210" y="330"/>
      <point x="150" y="380"/>
      <point x="150" y="450" type="curve" smooth="yes"/>
      <point x="150" y="500" type="line"/>
      <point x="50" y="500" type="line"/>
      <point x="50" y="450" type="line" smooth="yes"/>
      <point x="50" y="368.260869565"/>
      <point x="109.702821668" y="265.087405392"/>
    </contour>
    <contour>
      <point x="320" y="215" type="line"/>
      <point x="490.297178332" y="265.087405392"/>
      <point x="550" y="368.260869565"/>
      <point x="550" y="450" type="curve" smooth="yes"/>
      <point x="550" y="500" type="line"/>
      <point x="450" y="500" type="line"/>
      <point x="450" y="450" type="line" smooth="yes"/>
      <point x="450" y="380"/>
      <point x="390" y="330"/>
      <point x="230" y="270" type="curve"/>
      <point x="310" y="240" type="line"/>
    </contour>
    <contour>
      <point x="250" y="0" type="line"/>
      <point x="350" y="0" type="line"/>
      <point x="350" y="250" type="line"/>
      <point x="250" y="250" type="line"/>
    </contour>
    <contour>
      <point x="300" y="450" type="move" name="top"/>
    </contour>
  </outline>
</glyph>
<glyph name="ae.alt" format="1">
  <advance width="1000"/>
  <outline>
    <contour>
      <point x="535" y="0" type="line"/>
      <point x="550" y="80" type="line"/>
      <point x="550" y="420" type="line"/>
      <point x="540" y="500" type="line"/>
      <point x="460" y="500" type="line"/>
      <point x="450" y="420" type="line"/>
      <point x="450" y="80" type="line"/>
      <point x="460" y="0" type="line"/>
    </contour>
    <contour>
      <point x="450" y="420" type="line"/>
      <point x="440" y="470"/>
      <point x="390" y="510"/>
      <point x="270" y="510" type="curve" smooth="yes"/>
      <point x="120" y="510"/>
      <point x="50" y="440"/>
      <point x="50" y="290" type="curve"/>
      <point x="50" y="250" type="line"/>
      <point x="150" y="250" type="line"/>
      <point x="150" y="260" type="line"/>
      <point x="150" y="380"/>
      <point x="190" y="410"/>
      <point x="300" y="410" type="curve" smooth="yes"/>
      <point x="430" y="410"/>
      <point x="450" y="360"/>
      <point x="450" y="260" type="curve"/>
    </contour>
    <contour>
      <point x="450" y="80" type="curve"/>
      <point x="450" y="240" type="line"/>
      <point x="450" y="140"/>
      <point x="430" y="90"/>
      <point x="300" y="90" type="curve" smooth="yes"/>
      <point x="190" y="90"/>
      <point x="150" y="120"/>
      <point x="150" y="240" type="curve"/>
      <point x="150" y="250" type="line"/>
      <point x="50" y="250" type="line"/>
      <point x="50" y="210" type="line"/>
      <point x="50" y="60"/>
      <point x="120" y="-10"/>
      <point x="270" y="-10" type="curve" smooth="yes"/>
      <point x="390" y="-10"/>
      <point x="440" y="30"/>
    </contour>
    <contour>
      <point x="545" y="200" type="line"/>
      <point x="890" y="200" type="line"/>
      <point x="890" y="300" type="line"/>
      <point x="545" y="300" type="line"/>
    </contour>
    <contour>
      <point x="730" y="510" type="curve"/>
      <point x="610" y="510"/>
      <point x="560" y="470"/>
      <point x="550" y="420" type="curve"/>
      <point x="550" y="260" type="line"/>
      <point x="550" y="360"/>
      <point x="570" y="410"/>
      <point x="700" y="410" type="curve"/>
      <point x="830" y="410"/>
      <point x="850" y="390"/>
      <point x="850" y="310" type="curve"/>
      <point x="850" y="200" type="line"/>
      <point x="950" y="200" type="line"/>
      <point x="950" y="310" type="line"/>
      <point x="950" y="440"/>
      <point x="875" y="510"/>
    </contour>
    <contour>
      <point x="730" y="-10" type="curve"/>
      <point x="890" y="-10"/>
      <point x="950" y="40"/>
      <point x="950" y="130" type="curve"/>
      <point x="950" y="150" type="line"/>
      <point x="850" y="150" type="line"/>
      <point x="850" y="130" type="line"/>
      <point x="850" y="100"/>
      <point x="830" y="90"/>
      <point x="700" y="90" type="curve"/>
      <point x="570" y="90"/>
      <point x="550" y="140"/>
      <point x="550" y="240" type="curve"/>
      <point x="550" y="80" type="line"/>
      <point x="560" y="30"/>
      <point x="610" y="-10"/>
    </contour>
    <contour>
      <point x="700.0" y="500.0" type="move" name="top"/>
    </contour>
  </outline>
</glyph>
<glyph name="b.superior" format="1">
  <advance width="400"/>
  <outline>
    <contour>
      <point x="50" y="400" type="line"/>
      <point x="115" y="400" type="line"/>
      <point x="130" y="460" type="line"/>
      <point x="140" y="460" type="line"/>
      <point x="140" y="640" type="line"/>
      <point x="130" y="640" type="line"/>
      <point x="135" y="670"/>
      <point x="140" y="700"/>
      <point x="140" y="745" type="curve" smooth="yes"/>
      <point x="140" y="800" type="line"/>
      <point x="50" y="800" type="line"/>
    </contour>
    <contour>
      <point x="350" y="560" type="line" smooth="yes"/>
      <point x="350" y="660"/>
      <point x="320" y="710"/>
      <point x="240" y="710" type="curve"/>
      <point x="185" y="710"/>
      <point x="150" y="680"/>
      <point x="140" y="640" type="curve"/>
      <point x="140" y="565" type="line"/>
      <point x="140" y="605"/>
      <point x="160" y="620"/>
      <point x="200" y="620" type="curve" smooth="yes"/>
      <point x="240" y="620"/>
      <point x="260" y="605"/>
      <point x="260" y="565" type="curve"/>
      <point x="260" y="535" type="line" smooth="yes"/>
      <point x="260" y="495"/>
      <point x="240" y="480"/>
      <point x="200" y="480" type="curve" smooth="yes"/>
      <point x="160" y="480"/>
      <point x="140" y="495"/>
      <point x="140" y="535" type="curve"/>
      <point x="140" y="460" type="line"/>
      <point x="150" y="420"/>
      <point x="185" y="390"/>
      <point x="240" y="390" type="curve"/>
      <point x="320" y="390"/>
      <point x="350" y="440"/>
      <point x="350" y="540" type="curve"/>
    </contour>
  </outline>
</glyph>
<glyph name="braceleft.cap" format="1">
  <advance width="200"/>
  <outline>
    <contour>
      <point x="50" y="560" type="curve"/>
      <point x="50" y="450" type="line"/>
      <point x="50" y="410"/>
      <point x="40" y="400"/>
      <point x="0" y="390" type="curve"/>
      <point x="0" y="310" type="line"/>
      <point x="40" y="300"/>
      <point x="50" y="290"/>
      <point x="50" y="250" type="curve" smooth="yes"/>
      <point x="50" y="140" type="line"/>
      <point x="50" y="50"/>
      <point x="120" y="0"/>
      <point x="200" y="0" type="curve"/>
      <point x="200" y="90" type="line"/>
      <point x="170" y="90"/>
      <point x="150" y="100"/>
      <point x="150" y="140" type="curve" smooth="yes"/>
      <point x="150" y="250" type="line"/>
      <point x="150" y="310"/>
      <point x="130" y="340"/>
      <point x="100" y="350" type="curve"/>
      <point x="130" y="360"/>
      <point x="150" y="390"/>
      <point x="150" y="450" type="curve"/>
      <point x="150" y="560" type="line" smooth="yes"/>
      <point x="150" y="600"/>
      <point x="170" y="610"/>
      <point x="200" y="610" type="curve"/>
      <point x="200" y="700" type="line"/>
      <point x="120" y="700"/>
      <point x="50" y="650"/>
    </contour>
  </outline>
</glyph>
<glyph name="bracketleft.cap" format="1">
  <advance width="200"/>
  <outline>
    <contour>
      <point x="50" y="700" type="line"/>
      <point x="50" y="0" type="line"/>
      <point x="200" y="0" type="line"/>
      <point x="200" y="100" type="line"/>
      <point x="150" y="100" type="line"/>
      <point x="150" y="600" type="line" smooth="yes"/>
      <point x="200" y="600" type="line"/>
      <point x="200" y="700" type="line"/>
    </contour>
  </outline>
</glyph>
<glyph name="dotlessi.mono" format="1">
  <advance width="600"/>
  <outline>
    <contour>
      <point x="250" y="0" type="line"/>
      <point x="350" y="0" type="line"/>
      <point x="350" y="500" type="line"/>
      <point x="250" y="500" type="line"/>
    </contour>
    <contour>
      <point x="50" y="0" type="line"/>
      <point x="550" y="0" type="line"/>
      <point x="550" y="100" type="line"/>
      <point x="50" y="100" type="line"/>
    </contour>
    <contour>
      <point x="50" y="400" type="line"/>
      <point x="290" y="400" type="line"/>
      <point x="290" y="500" type="line"/>
      <point x="50" y="500" type="line"/>
    </contour>
  </outline>
</glyph>
<glyph name="horizontalfill" format="1">
  <advance width="1000"/>
  <outline>
    <contour>
      <point x="0" y="400" type="line"/>
      <point x="1000" y="400" type="line"/>
      <point x="1000" y="500" type="line"/>
      <point x="0" y="500" type="line"/>
    </contour>
    <contour>
      <point x="0" y="600" type="line"/>
      <point x="1000" y="600" type="line"/>
      <point x="1000" y="700" type="line"/>
      <point x="0" y="700" type="line"/>
    </contour>
    <contour>
      <point x="0" y="0" type="line"/>
      <point x="1000" y="0" type="line"/>
      <point x="1000" y="100" type="line"/>
      <point x="0" y="100" type="line"/>
    </contour>
    <contour>
      <point x="0" y="200" type="line"/>
      <point x="1000" y="200" type="line"/>
      <point x="1000" y="300" type="line"/>
      <point x="0" y="300" type="line"/>
    </contour>
    <contour>
      <point x="0" y="-200" type="line"/>
      <point x="1000" y="-200" type="line"/>
      <point x="1000" y="-100" type="line"/>
      <point x="0" y="-100" type="line"/>
    </contour>
  </outline>
</glyph>
<glyph name="i.TRK" format="1">
  <advance width="200"/>
  <outline>
    <contour>
      <point x="50" y="0" type="line"/>
      <point x="150" y="0" type="line"/>
      <point x="150" y="500" type="line"/>
      <point x="50" y="500" type="line"/>
    </contour>
    <contour>
      <point x="100.0" y="500.0" type="move" name="top"/>
    </contour>
  </outline>
</glyph>
<glyph name="i.mono" format="1">
  <advance width="600"/>
  <outline>
    <contour>
      <point x="245" y="590" type="line"/>
      <point x="355" y="590" type="line"/>
      <point x="355" y="700" type="line"/>
      <point x="245" y="700" type="line"/>
    </contour>
    <component base="dotlessi.mono"/>
  </outline>
</glyph>
<glyph name="j.mono" format="1">
  <advance width="400"/>
  <outline>
    <contour>
      <point x="245" y="590" type="line"/>
      <point x="355" y="590" type="line"/>
      <point x="355" y="700" type="line"/>
      <point x="245" y="700" type="line"/>
    </contour>
    <contour>
      <point x="250" y="0" type="line"/>
      <point x="350" y="0" type="line"/>
      <point x="350" y="500" type="line"/>
      <point x="250" y="500" type="line"/>
    </contour>
    <contour>
      <point x="50" y="400" type="line"/>
      <point x="342" y="400" type="line"/>
      <point x="342" y="500" type="line"/>
      <point x="50" y="500" type="line"/>
    </contour>
    <contour>
      <point x="50" y="-70" type="line"/>
      <point x="50" y="-160"/>
      <point x="110" y="-210"/>
      <point x="200" y="-210" type="curve" smooth="yes"/>
      <point x="280" y="-210"/>
      <point x="350" y="-150"/>
      <point x="350" y="-60" type="curve"/>
      <point x="350" y="300" type="line"/>
      <point x="250" y="300" type="line"/>
      <point x="250" y="-60" type="line" smooth="yes"/>
      <point x="250" y="-100"/>
      <point x="230" y="-110"/>
      <point x="200" y="-110" type="curve" smooth="yes"/>
      <point x="170" y="-110"/>
      <point x="150" y="-110"/>
      <point x="150" y="-70" type="curve"/>
      <point x="150" y="50" type="line"/>
      <point x="50" y="50" type="line"/>
    </contour>
  </outline>
</glyph>
<glyph name="numero" format="1">
  <advance width="1000"/>
  <outline>
    <contour>
      <point x="50" y="0" type="line"/>
      <point x="150" y="0" type="line"/>
      <point x="150" y="700" type="line"/>
      <point x="50" y="700" type="line"/>
    </contour>
    <contour>
      <point x="450" y="0" type="line"/>
      <point x="550" y="0" type="line"/>
      <point x="550" y="700" type="line"/>
      <point x="450" y="700" type="line"/>
    </contour>
    <contour>
      <point x="450" y="0" type="line"/>
      <point x="530" y="70" type="line"/>
      <point x="150" y="700" type="line"/>
      <point x="70" y="630" type="line"/>
    </contour>
    <contour>
      <point x="870" y="550" type="curve"/>
      <point x="870" y="500"/>
      <point x="850" y="480"/>
      <point x="800" y="480" type="curve"/>
      <point x="750" y="480"/>
      <point x="730" y="500"/>
      <point x="730" y="550" type="curve"/>
      <point x="730" y="600"/>
      <point x="750" y="620"/>
      <point x="800" y="620" type="curve"/>
      <point x="850" y="620"/>
      <point x="870" y="600"/>
    </contour>
    <contour>
      <point x="960" y="550" type="curve"/>
      <point x="960" y="660"/>
      <point x="900" y="710"/>
      <point x="800" y="710" type="curve"/>
      <point x="700" y="710"/>
      <point x="640" y="660"/>
      <point x="640" y="550" type="curve"/>
      <point x="640" y="440"/>
      <point x="700" y="390"/>
      <point x="800" y="390" type="curve"/>
      <point x="900" y="390"/>
      <point x="960" y="440"/>
    </contour>
    <contour>
      <point x="950" y="200" type="line"/>
      <point x="950" y="300" type="line"/>
      <point x="650" y="300" type="line"/>
      <point x="650" y="200" type="line"/>
    </contour>
    <contour>
      <point x="300.0" y="650.0" type="move" name="top"/>
    </contour>
  </outline>
</glyph>
<glyph name="parenleft.cap" format="1">
  <advance width="200"/>
  <outline>
    <contour>
      <point x="50" y="560" type="curve"/>
      <point x="50" y="140" type="line"/>
      <point x="50" y="50"/>
      <point x="120" y="0"/>
      <point x="200" y="0" type="curve"/>
      <point x="200" y="90" type="line"/>
      <point x="170" y="90"/>
      <point x="150" y="100"/>
      <point x="150" y="140" type="curve" smooth="yes"/>
      <point x="150" y="560" type="line" smooth="yes"/>
      <point x="150" y="600"/>
      <point x="170" y="610"/>
      <point x="200" y="610" type="curve"/>
      <point x="200" y="700" type="line"/>
      <point x="120" y="700"/>
      <point x="50" y="650"/>
    </contour>
  </outline>
</glyph>
<glyph name="r.mono" format="1">
  <advance width="600"/>
  <outline>
    <contour>
      <point x="250" y="0" type="line"/>
      <point x="350" y="0" type="line"/>
      <point x="350" y="420" type="line"/>
      <point x="340" y="500" type="line"/>
      <point x="250" y="500" type="line"/>
    </contour>
    <contour>
      <point x="350" y="420" type="curve"/>
      <point x="350" y="260" type="line"/>
      <point x="350" y="360"/>
      <point x="370" y="400"/>
      <point x="500" y="400" type="curve"/>
      <point x="560" y="400" type="line"/>
      <point x="560" y="500" type="line"/>
      <point x="530" y="500" type="line"/>
      <point x="410" y="500"/>
      <point x="360" y="470"/>
    </contour>
    <contour>
      <point x="50" y="0" type="line"/>
      <point x="550" y="0" type="line"/>
      <point x="550" y="100" type="line"/>
      <point x="50" y="100" type="line"/>
    </contour>
    <contour>
      <point x="50" y="400" type="line"/>
      <point x="290" y="400" type="line"/>
      <point x="290" y="500" type="line"/>
      <point x="50" y="500" type="line"/>
    </contour>
  </outline>
</glyph>
<glyph name="r.superior" format="1">
  <advance width="400"/>
  <outline>
    <contour>
      <point x="50" y="400" type="line"/>
      <point x="140" y="400" type="line"/>
      <point x="140" y="640" type="line"/>
      <point x="130" y="640" type="line"/>
      <point x="115" y="700" type="line"/>
      <point x="50" y="700" type="line"/>
    </contour>
    <contour>
      <point x="140" y="640" type="curve"/>
      <point x="140" y="565" type="line"/>
      <point x="140.0" y="597.727272727"/>
      <point x="160.0" y="610.0"/>
      <point x="200" y="610" type="curve"/>
      <point x="350" y="610" type="line"/>
      <point x="350" y="700" type="line" smooth="yes"/>
      <point x="240" y="700" type="line"/>
      <point x="185.0" y="700.0"/>
      <point x="148.718602937" y="674.874411747"/>
    </contour>
  </outline>
</glyph>
<glyph name="roundeddot" format="1">
  <advance width="200"/>
  <outline>
    <contour>
      <point x="100" y="115" type="curve" smooth="yes"/>
      <point x="65" y="115"/>
      <point x="40" y="90"/>
      <point x="40" y="55" type="curve" smooth="yes"/>
      <point x="40" y="20"/>
      <point x="65" y="-5"/>
      <point x="100" y="-5" type="curve" smooth="yes"/>
      <point x="135" y="-5"/>
      <point x="160" y="20"/>
      <point x="160" y="55" type="curve" smooth="yes"/>
      <point x="160" y="90"/>
      <point x="135" y="115"/>
    </contour>
  </outline>
</glyph>
<glyph name="scoutsign" format="1">
  <advance width="600"/>
  <outline>
    <contour>
      <point x="445" y="385" type="line"/>
      <point x="450" y="425"/>
      <point x="455" y="450"/>
      <point x="490" y="450" type="curve" smooth="yes"/>
      <point x="515" y="450"/>
      <point x="565" y="420"/>
      <point x="565" y="320" type="curve" smooth="yes"/>
      <point x="565" y="230"/>
      <point x="525" y="180"/>
      <point x="490" y="180" type="curve" smooth="yes"/>
      <point x="444.5" y="180.0"/>
      <point x="425" y="207"/>
      <point x="425" y="277" type="curve"/>
      <point x="465" y="345" type="line"/>
      <point x="465" y="260" type="line" smooth="yes"/>
      <point x="465" y="232"/>
      <point x="471" y="220"/>
      <point x="488" y="220" type="curve" smooth="yes"/>
      <point x="515" y="220"/>
      <point x="525" y="280"/>
      <point x="525" y="320" type="curve" smooth="yes"/>
      <point x="525" y="370"/>
      <point x="505" y="410"/>
      <point x="485" y="410" type="curve" smooth="yes"/>
      <point x="465" y="410"/>
      <point x="465" y="385"/>
      <point x="465" y="365" type="curve" smooth="yes"/>
      <point x="465" y="345" type="line"/>
    </contour>
    <contour>
      <point x="510" y="0" type="curve"/>
      <point x="480" y="-25"/>
      <point x="395" y="-50"/>
      <point x="315" y="-50" type="curve" smooth="yes"/>
      <point x="240" y="-50"/>
      <point x="170" y="-30"/>
      <point x="140" y="10" type="curve" smooth="yes"/>
      <point x="104.61219745960219" y="59.54292355655692"/>
      <point x="87" y="140"/>
      <point x="93" y="168" type="curve" smooth="yes"/>
      <point x="105.19942747934722" y="216.7977099173889"/>
      <point x="131" y="251"/>
      <point x="281" y="313" type="curve" smooth="yes"/>
      <point x="354.63902432410845" y="345.5943222418184"/>
      <point x="417" y="379"/>
      <point x="450" y="329" type="curve" smooth="yes"/>
      <point x="476.1286815752912" y="289.8069776370633"/>
      <point x="434" y="224"/>
      <point x="330" y="172" type="curve" smooth="yes"/>
      <point x="267" y="140" type="line" smooth="yes"/>
      <point x="234" y="123"/>
      <point x="220.57834949558398" y="127.84330100883204"/>
      <point x="208" y="153" type="curve"/>
      <point x="274.7252257331778" y="194.70326608323614"/>
      <point x="448" y="269"/>
      <point x="420" y="309" type="curve" smooth="yes"/>
      <point x="410" y="323"/>
      <point x="404" y="323"/>
      <point x="291" y="273" type="curve" smooth="yes"/>
      <point x="178" y="223"/>
      <point x="146.16699386719847" y="202.50098160159547"/>
      <point x="133" y="163" type="curve" smooth="yes"/>
      <point x="124" y="139"/>
      <point x="143.24991595459323" y="80.39301322718399"/>
      <point x="165" y="40" type="curve"/>
      <point x="210" y="65"/>
      <point x="271.85714285714283" y="80.0"/>
      <point x="335" y="80" type="curve" smooth="yes"/>
      <point x="395" y="80"/>
      <point x="450" y="65"/>
      <point x="490" y="35" type="curve"/>
      <point x="500" y="90"/>
      <point x="510" y="170"/>
      <point x="500" y="205" type="curve"/>
      <point x="530" y="215" type="line"/>
      <point x="555" y="150"/>
      <point x="550" y="75"/>
    </contour>
    <contour>
      <point x="370" y="20" type="curve" smooth="yes"/>
      <point x="370" y="30"/>
      <point x="365" y="40"/>
      <point x="335" y="40" type="curve"/>
      <point x="295" y="40"/>
      <point x="290" y="30"/>
      <point x="290" y="20" type="curve" smooth="yes"/>
      <point x="290" y="10"/>
      <point x="295" y="0"/>
      <point x="335" y="0" type="curve"/>
      <point x="365" y="0"/>
      <point x="370" y="10"/>
    </contour>
    <contour>
      <point x="95.0" y="395.0" type="curve" smooth="yes"/>
      <point x="95.0" y="731.0"/>
      <point x="154.0" y="740.0"/>
      <point x="185.0" y="740.0" type="curve" smooth="yes"/>
      <point x="210.0" y="740.0"/>
      <point x="228.0" y="720.0"/>
      <point x="235.0" y="630.0" type="curve"/>
      <point x="245.0" y="584.0" type="line"/>
      <point x="245" y="500" type="line" smooth="yes"/>
      <point x="245" y="404"/>
      <point x="235" y="392"/>
      <point x="225" y="392" type="curve" smooth="yes"/>
      <point x="214" y="392"/>
      <point x="205" y="404"/>
      <point x="205" y="500" type="curve" smooth="yes"/>
      <point x="205.0" y="630.0" type="line"/>
      <point x="205.0" y="680.0"/>
      <point x="205.0" y="700.0"/>
      <point x="190.0" y="700.0" type="curve" smooth="yes"/>
      <point x="160.0" y="700.0"/>
      <point x="135.0" y="610.0"/>
      <point x="135.0" y="360.0" type="curve" smooth="yes"/>
      <point x="135.0" y="283.0"/>
      <point x="141.0" y="220.0"/>
      <point x="144.0" y="195.0" type="curve"/>
      <point x="115.0" y="188.0" type="line"/>
      <point x="101.0" y="234.0"/>
      <point x="95.0" y="303.0"/>
    </contour>
    <contour>
      <point x="280" y="761" type="curve"/>
      <point x="265.0" y="761.0"/>
      <point x="245.0" y="735.2857142857143"/>
      <point x="245" y="661" type="curve" smooth="yes"/>
      <point x="245.0" y="642.9504132231405"/>
      <point x="245.0" y="570.0"/>
      <point x="245" y="570" type="curve"/>
      <point x="213" y="691" type="line"/>
      <point x="223.00380934804707" y="781.0342841324236"/>
      <point x="249.07692307692307" y="801.0"/>
      <point x="280" y="801" type="curve"/>
      <point x="310.45454545454544" y="801.0"/>
      <point x="337.0017046935084" y="782.9843168197231"/>
      <point x="347" y="691" type="curve"/>
      <point x="315" y="570" type="line"/>
      <point x="315" y="570"/>
      <point x="315" y="643"/>
      <point x="315" y="661" type="curve" smooth="yes"/>
      <point x="315.0" y="732.0"/>
      <point x="294.5833333333333" y="761.0"/>
    </contour>
    <contour>
      <point x="315" y="490" type="curve"/>
      <point x="315" y="600" type="line"/>
      <point x="325" y="610" type="line"/>
      <point x="332" y="700"/>
      <point x="350" y="720"/>
      <point x="375" y="720" type="curve" smooth="yes"/>
      <point x="407" y="720"/>
      <point x="465" y="711"/>
      <point x="465" y="385" type="curve"/>
      <point x="465" y="280" type="line"/>
      <point x="425" y="277" type="line"/>
      <point x="425" y="350" type="line" smooth="yes"/>
      <point x="425" y="593"/>
      <point x="400" y="680"/>
      <point x="370" y="680" type="curve" smooth="yes"/>
      <point x="355" y="680"/>
      <point x="355" y="660"/>
      <point x="355" y="610" type="curve"/>
      <point x="355" y="557" type="line"/>
      <point x="355" y="490" type="line"/>
      <point x="355" y="394"/>
      <point x="345" y="382"/>
      <point x="335" y="382" type="curve" smooth="yes"/>
      <point x="324" y="382"/>
      <point x="315" y="394"/>
    </contour>
  </outline>
</glyph>
<glyph name="six.sup" format="1">
  <advance width="400"/>
  <outline>
    <contour>
      <point x="140" y="565" type="line"/>
      <point x="140" y="580" type="line" smooth="yes"/>
      <point x="140" y="620"/>
      <point x="170" y="620"/>
      <point x="200" y="620" type="curve" smooth="yes"/>
      <point x="230" y="620"/>
      <point x="260" y="620"/>
      <point x="260" y="595" type="curve"/>
      <point x="350" y="595" type="line"/>
      <point x="350" y="670"/>
      <point x="290" y="710"/>
      <point x="200" y="710" type="curve" smooth="yes"/>
      <point x="120" y="710"/>
      <point x="50" y="670"/>
      <point x="50" y="580" type="curve"/>
      <point x="50" y="505" type="line"/>
      <point x="50" y="420"/>
      <point x="110" y="390"/>
      <point x="210" y="390" type="curve"/>
      <point x="300" y="390"/>
      <point x="360" y="415"/>
      <point x="360" y="485" type="curve"/>
      <point x="360" y="560"/>
      <point x="295" y="580"/>
      <point x="235" y="580" type="curve" smooth="yes"/>
      <point x="195" y="580"/>
      <point x="170" y="575"/>
      <point x="150" y="560" type="curve"/>
    </contour>
    <contour>
      <point x="140" y="495" type="curve"/>
      <point x="140" y="515"/>
      <point x="160" y="520"/>
      <point x="200" y="520" type="curve" smooth="yes"/>
      <point x="245" y="520"/>
      <point x="270" y="515"/>
      <point x="270" y="495" type="curve"/>
      <point x="270" y="475"/>
      <point x="250" y="470"/>
      <point x="210" y="470" type="curve"/>
      <point x="160" y="470"/>
      <point x="140" y="475"/>
    </contour>
  </outline>
</glyph>
<glyph name="t.superior" format="1">
  <advance width="400"/>
  <outline>
    <contour>
      <point x="350" y="490" type="line"/>
      <point x="190" y="490" type="line"/>
      <point x="160" y="490"/>
      <point x="140" y="500"/>
      <point x="140" y="540" type="curve"/>
      <point x="140" y="610" type="line"/>
      <point x="350" y="610" type="line"/>
      <point x="350" y="700" type="line"/>
      <point x="140" y="700" type="line"/>
      <point x="140" y="800" type="line"/>
      <point x="70" y="800" type="line"/>
      <point x="50" y="690" type="line"/>
      <point x="50" y="550" type="line"/>
      <point x="50" y="450"/>
      <point x="100" y="400"/>
      <point x="200" y="400" type="curve"/>
      <point x="350" y="400" type="line"/>
    </contour>
  </outline>
</glyph>
<glyph name="trictoryhand" format="1">
  <advance width="600"/>
  <outline>
    <contour>
      <point x="320" y="455"/>
      <point x="350" y="490"/>
      <point x="385" y="490" type="curve" smooth="yes"/>
      <point x="420" y="490"/>
      <point x="465" y="450"/>
      <point x="465" y="345" type="curve" smooth="yes"/>
      <point x="465" y="245"/>
      <point x="430" y="190"/>
      <point x="390" y="190" type="curve" smooth="yes"/>
      <point x="345" y="190"/>
      <point x="325" y="225"/>
      <point x="325" y="265" type="curve"/>
      <point x="325" y="285"/>
      <point x="335" y="310"/>
      <point x="340" y="325" type="curve"/>
      <point x="350" y="365" type="line"/>
      <point x="360" y="350" type="line"/>
      <point x="360" y="265" type="line" smooth="yes"/>
      <point x="360" y="245"/>
      <point x="370" y="230"/>
      <point x="390" y="230" type="curve" smooth="yes"/>
      <point x="420" y="230"/>
      <point x="425" y="295"/>
      <point x="425" y="345" type="curve" smooth="yes"/>
      <point x="425" y="400"/>
      <point x="405" y="450"/>
      <point x="380" y="450" type="curve" smooth="yes"/>
      <point x="365" y="450"/>
      <point x="360" y="440"/>
      <point x="360" y="425" type="curve" smooth="yes"/>
      <point x="360" y="345" type="line"/>
      <point x="335" y="390" type="line"/>
    </contour>
    <contour>
      <point x="445" y="385" type="line"/>
      <point x="450" y="425"/>
      <point x="455" y="450"/>
      <point x="490" y="450" type="curve" smooth="yes"/>
      <point x="515" y="450"/>
      <point x="565" y="420"/>
      <point x="565" y="320" type="curve" smooth="yes"/>
      <point x="565" y="230"/>
      <point x="525" y="180"/>
      <point x="490" y="180" type="curve" smooth="yes"/>
      <point x="455" y="180"/>
      <point x="440" y="205"/>
      <point x="440" y="270" type="curve"/>
      <point x="465" y="345" type="line"/>
      <point x="465" y="260" type="line" smooth="yes"/>
      <point x="465" y="240"/>
      <point x="465" y="220"/>
      <point x="490" y="220" type="curve" smooth="yes"/>
      <point x="515" y="220"/>
      <point x="525" y="280"/>
      <point x="525" y="320" type="curve" smooth="yes"/>
      <point x="525" y="370"/>
      <point x="505" y="410"/>
      <point x="485" y="410" type="curve" smooth="yes"/>
      <point x="465" y="410"/>
      <point x="465" y="385"/>
      <point x="465" y="365" type="curve" smooth="yes"/>
      <point x="465" y="345" type="line"/>
    </contour>
    <contour>
      <point x="510" y="0" type="curve"/>
      <point x="480" y="-25"/>
      <point x="395" y="-50"/>
      <point x="315" y="-50" type="curve" smooth="yes"/>
      <point x="240" y="-50"/>
      <point x="170" y="-30"/>
      <point x="140" y="10" type="curve" smooth="yes"/>
      <point x="90" y="80"/>
      <point x="75" y="220"/>
      <point x="85" y="265" type="curve" smooth="yes"/>
      <point x="95" y="305"/>
      <point x="110" y="340"/>
      <point x="220" y="385" type="curve" smooth="yes"/>
      <point x="265" y="405"/>
      <point x="330" y="410"/>
      <point x="350" y="380" type="curve" smooth="yes"/>
      <point x="365" y="355"/>
      <point x="365" y="315"/>
      <point x="270" y="250" type="curve"/>
      <point x="255" y="240" type="line" smooth="yes"/>
      <point x="230" y="220"/>
      <point x="210" y="230"/>
      <point x="200" y="250" type="curve"/>
      <point x="240" y="275"/>
      <point x="340" y="335"/>
      <point x="320" y="360" type="curve" smooth="yes"/>
      <point x="315" y="370"/>
      <point x="295" y="375"/>
      <point x="230" y="345" type="curve" smooth="yes"/>
      <point x="155" y="305"/>
      <point x="135" y="290"/>
      <point x="125" y="260" type="curve" smooth="yes"/>
      <point x="109.71956306693" y="219.25216817848"/>
      <point x="130" y="105"/>
      <point x="165" y="40" type="curve"/>
      <point x="210" y="65"/>
      <point x="271.85714285714283" y="80.0"/>
      <point x="335" y="80" type="curve" smooth="yes"/>
      <point x="395" y="80"/>
      <point x="450" y="65"/>
      <point x="490" y="35" type="curve"/>
      <point x="500" y="90"/>
      <point x="510" y="170"/>
      <point x="500" y="205" type="curve"/>
      <point x="530" y="215" type="line"/>
      <point x="555" y="150"/>
      <point x="550" y="75"/>
    </contour>
    <contour>
      <point x="370" y="20" type="curve" smooth="yes"/>
      <point x="370" y="30"/>
      <point x="365" y="40"/>
      <point x="335" y="40" type="curve"/>
      <point x="295" y="40"/>
      <point x="290" y="30"/>
      <point x="290" y="20" type="curve" smooth="yes"/>
      <point x="290" y="10"/>
      <point x="295" y="0"/>
      <point x="335" y="0" type="curve"/>
      <point x="365" y="0"/>
      <point x="370" y="10"/>
    </contour>
    <contour>
      <point x="245" y="415" type="curve"/>
      <point x="199" y="415"/>
      <point x="154" y="420"/>
      <point x="128" y="471" type="curve" smooth="yes"/>
      <point x="55" y="614" type="line" smooth="yes"/>
      <point x="31" y="660"/>
      <point x="20" y="678"/>
      <point x="6" y="670" type="curve" smooth="yes"/>
      <point x="-25" y="652"/>
      <point x="-2" y="559"/>
      <point x="115" y="325" type="curve" smooth="yes"/>
      <point x="124" y="307" type="line"/>
      <point x="110" y="303" type="line"/>
      <point x="95" y="300"/>
      <point x="79" y="302"/>
      <point x="61" y="338" type="curve" smooth="yes"/>
      <point x="-76" y="605"/>
      <point x="-58" y="681"/>
      <point x="-7" y="707" type="curve" smooth="yes"/>
      <point x="16" y="718"/>
      <point x="46" y="714"/>
      <point x="86" y="636" type="curve" smooth="yes"/>
      <point x="157" y="496" type="line" smooth="yes"/>
      <point x="175" y="461"/>
      <point x="207" y="450"/>
      <point x="245" y="450" type="curve" smooth="yes"/>
      <point x="270" y="450"/>
      <point x="285" y="468"/>
      <point x="291" y="482" type="curve" smooth="yes"/>
      <point x="369" y="656" type="line" smooth="yes"/>
      <point x="405" y="736"/>
      <point x="435" y="735"/>
      <point x="465" y="721" type="curve" smooth="yes"/>
      <point x="491" y="709"/>
      <point x="533" y="686"/>
      <point x="456" y="497" type="curve" smooth="yes"/>
      <point x="447" y="473"/>
      <point x="435" y="465"/>
      <point x="424" y="462" type="curve"/>
      <point x="399" y="462" type="line"/>
      <point x="458" y="614"/>
      <point x="474" y="672"/>
      <point x="451" y="686" type="curve" smooth="yes"/>
      <point x="438" y="694"/>
      <point x="423" y="682"/>
      <point x="401" y="635" type="curve" smooth="yes"/>
      <point x="324" y="471" type="line" smooth="yes"/>
      <point x="305" y="430"/>
      <point x="270" y="415"/>
    </contour>
    <contour>
      <point x="178" y="437" type="move"/>
      <point x="169" y="470"/>
      <point x="165" y="515"/>
      <point x="162" y="567" type="curve" smooth="yes"/>
      <point x="149" y="776"/>
      <point x="182" y="791"/>
      <point x="216" y="792" type="curve" smooth="yes"/>
      <point x="245" y="793"/>
      <point x="286" y="782"/>
      <point x="302" y="577" type="curve" smooth="yes"/>
      <point x="304.9659502896712" y="542.397246620503"/>
      <point x="300.0" y="490.0"/>
      <point x="297" y="474" type="curve"/>
      <point x="272" y="456" type="line"/>
      <point x="270" y="494"/>
      <point x="268" y="528"/>
      <point x="264" y="577" type="curve" smooth="yes"/>
      <point x="256" y="695"/>
      <point x="242" y="753"/>
      <point x="220" y="754" type="curve" smooth="yes"/>
      <point x="203" y="755"/>
      <point x="195" y="738"/>
      <point x="199" y="562" type="curve" smooth="yes"/>
      <point x="201" y="443" type="line" smooth="yes"/>
    </contour>
  </outline>
</glyph>
<glyph name="trictoryhand2" format="1">
  <advance width="600"/>
  <outline>
    <contour>
      <point x="320" y="455"/>
      <point x="350" y="490"/>
      <point x="385" y="490" type="curve" smooth="yes"/>
      <point x="420" y="490"/>
      <point x="465" y="450"/>
      <point x="465" y="345" type="curve" smooth="yes"/>
      <point x="465" y="245"/>
      <point x="430" y="190"/>
      <point x="390" y="190" type="curve" smooth="yes"/>
      <point x="345" y="190"/>
      <point x="325" y="225"/>
      <point x="325" y="265" type="curve"/>
      <point x="325" y="285"/>
      <point x="335" y="310"/>
      <point x="340" y="325" type="curve"/>
      <point x="350" y="365" type="line"/>
      <point x="360" y="350" type="line"/>
      <point x="360" y="265" type="line" smooth="yes"/>
      <point x="360" y="245"/>
      <point x="370" y="230"/>
      <point x="390" y="230" type="curve" smooth="yes"/>
      <point x="420" y="230"/>
      <point x="425" y="295"/>
      <point x="425" y="345" type="curve" smooth="yes"/>
      <point x="425" y="400"/>
      <point x="405" y="450"/>
      <point x="380" y="450" type="curve" smooth="yes"/>
      <point x="365" y="450"/>
      <point x="360" y="440"/>
      <point x="360" y="425" type="curve" smooth="yes"/>
      <point x="360" y="345" type="line"/>
      <point x="335" y="390" type="line"/>
    </contour>
    <contour>
      <point x="445" y="385" type="line"/>
      <point x="450" y="425"/>
      <point x="455" y="450"/>
      <point x="490" y="450" type="curve" smooth="yes"/>
      <point x="515" y="450"/>
      <point x="565" y="420"/>
      <point x="565" y="320" type="curve" smooth="yes"/>
      <point x="565" y="230"/>
      <point x="525" y="180"/>
      <point x="490" y="180" type="curve" smooth="yes"/>
      <point x="455" y="180"/>
      <point x="440" y="205"/>
      <point x="440" y="270" type="curve"/>
      <point x="465" y="345" type="line"/>
      <point x="465" y="260" type="line" smooth="yes"/>
      <point x="465" y="240"/>
      <point x="465" y="220"/>
      <point x="490" y="220" type="curve" smooth="yes"/>
      <point x="515" y="220"/>
      <point x="525" y="280"/>
      <point x="525" y="320" type="curve" smooth="yes"/>
      <point x="525" y="370"/>
      <point x="505" y="410"/>
      <point x="485" y="410" type="curve" smooth="yes"/>
      <point x="465" y="410"/>
      <point x="465" y="385"/>
      <point x="465" y="365" type="curve" smooth="yes"/>
      <point x="465" y="345" type="line"/>
    </contour>
    <contour>
      <point x="510" y="0" type="curve"/>
      <point x="480" y="-25"/>
      <point x="395" y="-50"/>
      <point x="315" y="-50" type="curve" smooth="yes"/>
      <point x="240" y="-50"/>
      <point x="170" y="-30"/>
      <point x="140" y="10" type="curve" smooth="yes"/>
      <point x="90" y="80"/>
      <point x="75" y="220"/>
      <point x="85" y="265" type="curve" smooth="yes"/>
      <point x="95" y="305"/>
      <point x="110" y="340"/>
      <point x="220" y="385" type="curve" smooth="yes"/>
      <point x="265" y="405"/>
      <point x="330" y="410"/>
      <point x="350" y="380" type="curve" smooth="yes"/>
      <point x="365" y="355"/>
      <point x="365" y="315"/>
      <point x="270" y="250" type="curve"/>
      <point x="255" y="240" type="line" smooth="yes"/>
      <point x="230" y="220"/>
      <point x="210" y="230"/>
      <point x="200" y="250" type="curve"/>
      <point x="240" y="275"/>
      <point x="340" y="335"/>
      <point x="320" y="360" type="curve" smooth="yes"/>
      <point x="315" y="370"/>
      <point x="295" y="375"/>
      <point x="230" y="345" type="curve" smooth="yes"/>
      <point x="155" y="305"/>
      <point x="135" y="290"/>
      <point x="125" y="260" type="curve" smooth="yes"/>
      <point x="109.71956306693" y="219.25216817848"/>
      <point x="130" y="105"/>
      <point x="165" y="40" type="curve"/>
      <point x="210" y="65"/>
      <point x="271.85714285714283" y="80.0"/>
      <point x="335" y="80" type="curve" smooth="yes"/>
      <point x="395" y="80"/>
      <point x="450" y="65"/>
      <point x="490" y="35" type="curve"/>
      <point x="500" y="90"/>
      <point x="510" y="170"/>
      <point x="500" y="205" type="curve"/>
      <point x="530" y="215" type="line"/>
      <point x="555" y="150"/>
      <point x="550" y="75"/>
    </contour>
    <contour>
      <point x="370" y="20" type="curve" smooth="yes"/>
      <point x="370" y="30"/>
      <point x="365" y="40"/>
      <point x="335" y="40" type="curve"/>
      <point x="295" y="40"/>
      <point x="290" y="30"/>
      <point x="290" y="20" type="curve" smooth="yes"/>
      <point x="290" y="10"/>
      <point x="295" y="0"/>
      <point x="335" y="0" type="curve"/>
      <point x="365" y="0"/>
      <point x="370" y="10"/>
    </contour>
    <contour>
      <point x="255" y="498" type="curve" smooth="yes"/>
      <point x="254" y="576" type="line" smooth="yes"/>
      <point x="252" y="713"/>
      <point x="236" y="755"/>
      <point x="218" y="754" type="curve" smooth="yes"/>
      <point x="197" y="753"/>
      <point x="183" y="738"/>
      <point x="196" y="562" type="curve" smooth="yes"/>
      <point x="202" y="482" type="line" smooth="yes"/>
      <point x="204" y="451"/>
      <point x="193" y="434"/>
      <point x="172" y="430" type="curve" smooth="yes"/>
      <point x="152" y="426"/>
      <point x="134.51217766517513" y="433.4335543634146"/>
      <point x="117" y="471" type="curve" smooth="yes"/>
      <point x="55" y="604" type="line" smooth="yes"/>
      <point x="33" y="650"/>
      <point x="20" y="668"/>
      <point x="6" y="660" type="curve" smooth="yes"/>
      <point x="-24" y="643"/>
      <point x="-2" y="552"/>
      <point x="111" y="325" type="curve" smooth="yes"/>
      <point x="124" y="299" type="line"/>
      <point x="110" y="295" type="line"/>
      <point x="94" y="292"/>
      <point x="79" y="295"/>
      <point x="57" y="338" type="curve" smooth="yes"/>
      <point x="-75" y="596"/>
      <point x="-55" y="672"/>
      <point x="-7" y="697" type="curve" smooth="yes"/>
      <point x="16" y="708"/>
      <point x="51" y="704"/>
      <point x="86" y="626" type="curve" smooth="yes"/>
      <point x="137" y="514" type="line" smooth="yes"/>
      <point x="152" y="481"/>
      <point x="158" y="466"/>
      <point x="164" y="468" type="curve" smooth="yes"/>
      <point x="169" y="470"/>
      <point x="168" y="490"/>
      <point x="164" y="517" type="curve" smooth="yes"/>
      <point x="128" y="764"/>
      <point x="181" y="792"/>
      <point x="214" y="792" type="curve" smooth="yes"/>
      <point x="258" y="792"/>
      <point x="293" y="779"/>
      <point x="289" y="535" type="curve" smooth="yes"/>
      <point x="289" y="511"/>
      <point x="288" y="491"/>
      <point x="294" y="490" type="curve" smooth="yes"/>
      <point x="300.46968526649283" y="488.9217191222512"/>
      <point x="305.79010393257516" y="497.46826329585707"/>
      <point x="321" y="536" type="curve" smooth="yes"/>
      <point x="362" y="639" type="line" smooth="yes"/>
      <point x="395" y="721"/>
      <point x="432" y="729"/>
      <point x="462" y="715" type="curve" smooth="yes"/>
      <point x="481" y="706"/>
      <point x="528" y="673"/>
      <point x="460" y="508" type="curve" smooth="yes"/>
      <point x="448" y="479"/>
      <point x="435" y="468"/>
      <point x="425" y="464" type="curve"/>
      <point x="399.0" y="462.0" type="line"/>
      <point x="456.1841864401771" y="609.32197184588"/>
      <point x="470" y="667"/>
      <point x="448" y="680" type="curve" smooth="yes"/>
      <point x="435" y="688"/>
      <point x="418" y="676"/>
      <point x="398" y="629" type="curve" smooth="yes"/>
      <point x="331" y="476" type="line" smooth="yes"/>
      <point x="321.67814789082524" y="454.7127854820337"/>
      <point x="303.3684210526316" y="447.0"/>
      <point x="289" y="447" type="curve" smooth="yes"/>
      <point x="274" y="447"/>
      <point x="255" y="460"/>
    </contour>
  </outline>
</glyph>
<glyph name="verticalfill" format="1">
  <advance width="1000"/>
  <outline>
    <contour>
      <point x="350" y="-300" type="line"/>
      <point x="350" y="700" type="line"/>
      <point x="250" y="700" type="line"/>
      <point x="250" y="-300" type="line"/>
    </contour>
    <contour>
      <point x="150" y="-300" type="line"/>
      <point x="150" y="700" type="line"/>
      <point x="50" y="700" type="line"/>
      <point x="50" y="-300" type="line"/>
    </contour>
    <contour>
      <point x="750" y="-300" type="line"/>
      <point x="750" y="700" type="line"/>
      <point x="650" y="700" type="line"/>
      <point x="650" y="-300" type="line"/>
    </contour>
    <contour>
      <point x="550" y="-300" type="line"/>
      <point x="550" y="700" type="line"/>
      <point x="450" y="700" type="line"/>
      <point x="450" y="-300" type="line"/>
    </contour>
    <contour>
      <point x="950" y="-300" type="line"/>
      <point x="950" y="700" type="line"/>
      <point x="850" y="700" type="line"/>
      <point x="850" y="-300" type="line"/>
    </contour>
  </outline>
</glyph>
<glyph name="y.superior" format="1">
  <advance width="400"/>
  <outline>
    <contour>
      <point x="245" y="400" type="line"/>
      <point x="315" y="485"/>
      <point x="350" y="590"/>
      <point x="350" y="680" type="curve" smooth="yes"/>
      <point x="350" y="700" type="line"/>
      <point x="260" y="700" type="line"/>
      <point x="260" y="680" type="line" smooth="yes"/>
      <point x="260" y="603.720930233"/>
      <point x="243.605815014" y="542.560176274"/>
      <point x="205" y="475" type="curve" smooth="yes"/>
      <point x="205" y="475"/>
      <point x="195" y="475"/>
      <point x="195" y="475" type="curve"/>
      <point x="156.394184986" y="542.560176274"/>
      <point x="140" y="603.720930233"/>
      <point x="140" y="680" type="curve" smooth="yes"/>
      <point x="140" y="700" type="line"/>
      <point x="50" y="700" type="line"/>
      <point x="50" y="680" type="line" smooth="yes"/>
      <point x="50" y="590"/>
      <point x="85" y="485"/>
      <point x="155" y="400" type="curve"/>
    </contour>
    <contour>
      <point x="245" y="450" type="line"/>
      <point x="155" y="450" type="line"/>
      <point x="155" y="300" type="line"/>
      <point x="245" y="300" type="line"/>
    </contour>
  </outline>
</glyph>
